<?xml version="1.0" encoding="utf-8" standalone="no"?>
<!DOCTYPE svg PUBLIC "-//W3C//DTD SVG 1.1//EN"
  "http://www.w3.org/Graphics/SVG/1.1/DTD/svg11.dtd">
<svg xmlns:xlink="http://www.w3.org/1999/xlink" width="1002.24pt" height="573.86625pt" viewBox="0 0 1002.24 573.86625" xmlns="http://www.w3.org/2000/svg" version="1.1">
 <metadata>
  <rdf:RDF xmlns:dc="http://purl.org/dc/elements/1.1/" xmlns:cc="http://creativecommons.org/ns#" xmlns:rdf="http://www.w3.org/1999/02/22-rdf-syntax-ns#">
   <cc:Work>
    <dc:type rdf:resource="http://purl.org/dc/dcmitype/StillImage"/>
    <dc:date>2025-04-20T19:39:48.037662</dc:date>
    <dc:format>image/svg+xml</dc:format>
    <dc:creator>
     <cc:Agent>
      <dc:title>Matplotlib v3.8.2, https://matplotlib.org/</dc:title>
     </cc:Agent>
    </dc:creator>
   </cc:Work>
  </rdf:RDF>
 </metadata>
 <defs>
  <style type="text/css">*{stroke-linejoin: round; stroke-linecap: butt}</style>
 </defs>
 <g id="figure_1">
  <g id="patch_1">
   <path d="M 0 573.86625 
L 1002.24 573.86625 
L 1002.24 0 
L 0 0 
z
" style="fill: #ffffff"/>
  </g>
  <g id="axes_1">
   <g id="patch_2">
    <path d="M 46.68 526.34625 
L 954.72 526.34625 
L 954.72 38.8475 
L 46.68 38.8475 
z
" style="fill: #f8f9fa"/>
   </g>
   <g id="matplotlib.axis_1">
    <g id="xtick_1">
     <g id="line2d_1">
      <path d="M 87.954545 526.34625 
L 87.954545 38.8475 
" clip-path="url(#paa9f073c77)" style="fill: none; stroke-dasharray: 2.96,1.28; stroke-dashoffset: 0; stroke: #666666; stroke-opacity: 0.2; stroke-width: 0.8"/>
     </g>
     <g id="text_1">
      <!-- 18-May -->
      <g style="fill: #262626" transform="translate(79.667972 561.444781) rotate(-45) scale(0.09 -0.09)">
       <defs>
        <path id="Calibri-31" d="M 2897 213 
Q 2897 153 2887 112 
Q 2878 72 2862 47 
Q 2847 22 2826 11 
Q 2806 0 2784 0 
L 672 0 
Q 650 0 631 11 
Q 613 22 595 47 
Q 578 72 568 112 
Q 559 153 559 213 
Q 559 269 568 309 
Q 578 350 592 376 
Q 606 403 626 417 
Q 647 431 672 431 
L 1516 431 
L 1516 3506 
L 734 3041 
Q 675 3009 639 3003 
Q 603 2997 581 3017 
Q 559 3038 551 3084 
Q 544 3131 544 3203 
Q 544 3256 548 3293 
Q 553 3331 562 3356 
Q 572 3381 589 3400 
Q 606 3419 634 3438 
L 1566 4034 
Q 1578 4044 1597 4050 
Q 1616 4056 1644 4062 
Q 1672 4069 1709 4070 
Q 1747 4072 1803 4072 
Q 1878 4072 1928 4065 
Q 1978 4059 2006 4048 
Q 2034 4038 2043 4020 
Q 2053 4003 2053 3984 
L 2053 431 
L 2784 431 
Q 2809 431 2831 417 
Q 2853 403 2867 376 
Q 2881 350 2889 309 
Q 2897 269 2897 213 
z
" transform="scale(0.015625)"/>
        <path id="Calibri-38" d="M 2981 1038 
Q 2981 775 2887 570 
Q 2794 366 2617 225 
Q 2441 84 2181 12 
Q 1922 -59 1588 -59 
Q 1275 -59 1028 6 
Q 781 72 609 200 
Q 438 328 347 515 
Q 256 703 256 944 
Q 256 1134 318 1293 
Q 381 1453 498 1587 
Q 616 1722 787 1839 
Q 959 1956 1175 2063 
Q 988 2159 844 2267 
Q 700 2375 600 2501 
Q 500 2628 448 2772 
Q 397 2916 397 3084 
Q 397 3297 473 3483 
Q 550 3669 704 3806 
Q 859 3944 1098 4023 
Q 1338 4103 1656 4103 
Q 1963 4103 2186 4029 
Q 2409 3956 2554 3829 
Q 2700 3703 2769 3531 
Q 2838 3359 2838 3163 
Q 2838 3003 2786 2856 
Q 2734 2709 2634 2578 
Q 2534 2447 2389 2333 
Q 2244 2219 2056 2119 
Q 2278 2009 2451 1893 
Q 2625 1778 2742 1645 
Q 2859 1513 2920 1364 
Q 2981 1216 2981 1038 
z
M 2306 3113 
Q 2306 3244 2261 3350 
Q 2216 3456 2128 3531 
Q 2041 3606 1911 3645 
Q 1781 3684 1616 3684 
Q 1278 3684 1104 3531 
Q 931 3378 931 3113 
Q 931 2991 973 2886 
Q 1016 2781 1105 2687 
Q 1194 2594 1330 2505 
Q 1466 2416 1653 2319 
Q 1969 2481 2137 2678 
Q 2306 2875 2306 3113 
z
M 2438 981 
Q 2438 1125 2384 1242 
Q 2331 1359 2223 1461 
Q 2116 1563 1955 1658 
Q 1794 1753 1581 1856 
Q 1384 1759 1236 1662 
Q 1088 1566 992 1462 
Q 897 1359 848 1245 
Q 800 1131 800 994 
Q 800 691 1008 525 
Q 1216 359 1628 359 
Q 2028 359 2233 526 
Q 2438 694 2438 981 
z
" transform="scale(0.015625)"/>
        <path id="Calibri-2d" d="M 1744 1578 
Q 1744 1456 1716 1409 
Q 1688 1363 1634 1363 
L 328 1363 
Q 272 1363 244 1411 
Q 216 1459 216 1578 
Q 216 1697 244 1744 
Q 272 1791 328 1791 
L 1634 1791 
Q 1659 1791 1679 1781 
Q 1700 1772 1714 1745 
Q 1728 1719 1736 1678 
Q 1744 1638 1744 1578 
z
" transform="scale(0.015625)"/>
        <path id="Calibri-4d" d="M 4934 81 
Q 4934 56 4921 37 
Q 4909 19 4878 8 
Q 4847 -3 4798 -11 
Q 4750 -19 4672 -19 
Q 4600 -19 4548 -11 
Q 4497 -3 4467 8 
Q 4438 19 4425 37 
Q 4413 56 4413 81 
L 4413 3603 
L 4406 3603 
L 2966 66 
Q 2956 44 2939 28 
Q 2922 13 2889 2 
Q 2856 -9 2811 -14 
Q 2766 -19 2703 -19 
Q 2638 -19 2591 -12 
Q 2544 -6 2512 5 
Q 2481 16 2464 31 
Q 2447 47 2441 66 
L 1063 3603 
L 1059 3603 
L 1059 81 
Q 1059 56 1046 37 
Q 1034 19 1003 8 
Q 972 -3 922 -11 
Q 872 -19 794 -19 
Q 719 -19 669 -11 
Q 619 -3 589 8 
Q 559 19 548 37 
Q 538 56 538 81 
L 538 3800 
Q 538 3931 606 3987 
Q 675 4044 759 4044 
L 1084 4044 
Q 1184 4044 1259 4025 
Q 1334 4006 1390 3965 
Q 1447 3925 1484 3862 
Q 1522 3800 1550 3716 
L 2722 788 
L 2738 788 
L 3956 3706 
Q 3991 3800 4031 3865 
Q 4072 3931 4120 3970 
Q 4169 4009 4228 4026 
Q 4288 4044 4366 4044 
L 4706 4044 
Q 4753 4044 4795 4030 
Q 4838 4016 4867 3986 
Q 4897 3956 4915 3911 
Q 4934 3866 4934 3800 
L 4934 81 
z
" transform="scale(0.015625)"/>
        <path id="Calibri-61" d="M 2597 75 
Q 2597 38 2572 19 
Q 2547 0 2503 -9 
Q 2459 -19 2375 -19 
Q 2294 -19 2245 -9 
Q 2197 0 2175 19 
Q 2153 38 2153 75 
L 2153 356 
Q 1969 159 1742 50 
Q 1516 -59 1263 -59 
Q 1041 -59 861 -1 
Q 681 56 554 165 
Q 428 275 358 434 
Q 288 594 288 797 
Q 288 1034 384 1209 
Q 481 1384 662 1500 
Q 844 1616 1106 1673 
Q 1369 1731 1697 1731 
L 2084 1731 
L 2084 1950 
Q 2084 2113 2050 2238 
Q 2016 2363 1939 2445 
Q 1863 2528 1741 2570 
Q 1619 2613 1441 2613 
Q 1250 2613 1098 2567 
Q 947 2522 833 2467 
Q 719 2413 642 2367 
Q 566 2322 528 2322 
Q 503 2322 484 2334 
Q 466 2347 452 2372 
Q 438 2397 431 2436 
Q 425 2475 425 2522 
Q 425 2600 436 2645 
Q 447 2691 489 2731 
Q 531 2772 634 2826 
Q 738 2881 872 2926 
Q 1006 2972 1165 3001 
Q 1325 3031 1488 3031 
Q 1791 3031 2003 2962 
Q 2216 2894 2347 2761 
Q 2478 2628 2537 2431 
Q 2597 2234 2597 1972 
L 2597 75 
z
M 2084 1359 
L 1644 1359 
Q 1431 1359 1275 1323 
Q 1119 1288 1016 1217 
Q 913 1147 864 1048 
Q 816 950 816 822 
Q 816 603 955 473 
Q 1094 344 1344 344 
Q 1547 344 1720 447 
Q 1894 550 2084 763 
L 2084 1359 
z
" transform="scale(0.015625)"/>
        <path id="Calibri-79" d="M 1759 0 
L 1384 -1034 
Q 1366 -1084 1289 -1111 
Q 1213 -1138 1056 -1138 
Q 975 -1138 925 -1130 
Q 875 -1122 848 -1103 
Q 822 -1084 819 -1053 
Q 816 -1022 834 -978 
L 1222 0 
Q 1194 13 1169 41 
Q 1144 69 1134 100 
L 131 2788 
Q 106 2853 106 2890 
Q 106 2928 131 2950 
Q 156 2972 212 2980 
Q 269 2988 363 2988 
Q 456 2988 509 2983 
Q 563 2978 594 2965 
Q 625 2953 639 2929 
Q 653 2906 669 2866 
L 1472 609 
L 1481 609 
L 2256 2878 
Q 2275 2938 2301 2955 
Q 2328 2972 2381 2980 
Q 2434 2988 2534 2988 
Q 2622 2988 2678 2980 
Q 2734 2972 2761 2950 
Q 2788 2928 2788 2890 
Q 2788 2853 2769 2797 
L 1759 0 
z
" transform="scale(0.015625)"/>
       </defs>
       <use xlink:href="#Calibri-31"/>
       <use xlink:href="#Calibri-38" x="50.683594"/>
       <use xlink:href="#Calibri-2d" x="101.367188"/>
       <use xlink:href="#Calibri-4d" x="131.982422"/>
       <use xlink:href="#Calibri-61" x="217.480469"/>
       <use xlink:href="#Calibri-79" x="265.380859"/>
      </g>
     </g>
    </g>
    <g id="xtick_2">
     <g id="line2d_2">
      <path d="M 225.536364 526.34625 
L 225.536364 38.8475 
" clip-path="url(#paa9f073c77)" style="fill: none; stroke-dasharray: 2.96,1.28; stroke-dashoffset: 0; stroke: #666666; stroke-opacity: 0.2; stroke-width: 0.8"/>
     </g>
     <g id="text_2">
      <!-- 21-May -->
      <g style="fill: #262626" transform="translate(217.24979 561.444781) rotate(-45) scale(0.09 -0.09)">
       <defs>
        <path id="Calibri-32" d="M 2888 231 
Q 2888 175 2880 131 
Q 2872 88 2858 58 
Q 2844 28 2820 14 
Q 2797 0 2769 0 
L 534 0 
Q 491 0 458 11 
Q 425 22 401 47 
Q 378 72 367 119 
Q 356 166 356 234 
Q 356 297 361 344 
Q 366 391 381 427 
Q 397 463 420 498 
Q 444 534 481 575 
L 1266 1406 
Q 1538 1694 1702 1922 
Q 1866 2150 1955 2337 
Q 2044 2525 2072 2678 
Q 2100 2831 2100 2966 
Q 2100 3100 2056 3220 
Q 2013 3341 1930 3431 
Q 1847 3522 1722 3575 
Q 1597 3628 1434 3628 
Q 1244 3628 1092 3575 
Q 941 3522 827 3459 
Q 713 3397 636 3344 
Q 559 3291 522 3291 
Q 500 3291 483 3303 
Q 466 3316 455 3344 
Q 444 3372 437 3419 
Q 431 3466 431 3531 
Q 431 3578 434 3612 
Q 438 3647 445 3672 
Q 453 3697 465 3719 
Q 478 3741 515 3773 
Q 553 3806 645 3862 
Q 738 3919 877 3973 
Q 1016 4028 1183 4065 
Q 1350 4103 1534 4103 
Q 1828 4103 2048 4020 
Q 2269 3938 2414 3794 
Q 2559 3650 2631 3459 
Q 2703 3269 2703 3053 
Q 2703 2859 2668 2667 
Q 2634 2475 2523 2251 
Q 2413 2028 2203 1754 
Q 1994 1481 1647 1125 
L 1006 456 
L 2766 456 
Q 2791 456 2814 442 
Q 2838 428 2855 400 
Q 2872 372 2880 330 
Q 2888 288 2888 231 
z
" transform="scale(0.015625)"/>
       </defs>
       <use xlink:href="#Calibri-32"/>
       <use xlink:href="#Calibri-31" x="50.683594"/>
       <use xlink:href="#Calibri-2d" x="101.367188"/>
       <use xlink:href="#Calibri-4d" x="131.982422"/>
       <use xlink:href="#Calibri-61" x="217.480469"/>
       <use xlink:href="#Calibri-79" x="265.380859"/>
      </g>
     </g>
    </g>
    <g id="xtick_3">
     <g id="line2d_3">
      <path d="M 363.118182 526.34625 
L 363.118182 38.8475 
" clip-path="url(#paa9f073c77)" style="fill: none; stroke-dasharray: 2.96,1.28; stroke-dashoffset: 0; stroke: #666666; stroke-opacity: 0.2; stroke-width: 0.8"/>
     </g>
     <g id="text_3">
      <!-- 24-May -->
      <g style="fill: #262626" transform="translate(354.831608 561.444781) rotate(-45) scale(0.09 -0.09)">
       <defs>
        <path id="Calibri-34" d="M 3059 1150 
Q 3059 1047 3028 987 
Q 2997 928 2941 928 
L 2484 928 
L 2484 78 
Q 2484 53 2471 36 
Q 2459 19 2428 6 
Q 2397 -6 2347 -12 
Q 2297 -19 2219 -19 
Q 2144 -19 2094 -12 
Q 2044 -6 2014 6 
Q 1984 19 1973 36 
Q 1963 53 1963 78 
L 1963 928 
L 294 928 
Q 256 928 231 937 
Q 206 947 186 972 
Q 166 997 158 1044 
Q 150 1091 150 1166 
Q 150 1225 153 1272 
Q 156 1319 165 1358 
Q 175 1397 190 1433 
Q 206 1469 228 1509 
L 1684 3966 
Q 1700 3991 1729 4009 
Q 1759 4028 1806 4040 
Q 1853 4053 1922 4058 
Q 1991 4063 2084 4063 
Q 2188 4063 2264 4055 
Q 2341 4047 2387 4034 
Q 2434 4022 2459 4001 
Q 2484 3981 2484 3953 
L 2484 1372 
L 2941 1372 
Q 2994 1372 3026 1317 
Q 3059 1263 3059 1150 
z
M 1963 3591 
L 1956 3591 
L 641 1372 
L 1963 1372 
L 1963 3591 
z
" transform="scale(0.015625)"/>
       </defs>
       <use xlink:href="#Calibri-32"/>
       <use xlink:href="#Calibri-34" x="50.683594"/>
       <use xlink:href="#Calibri-2d" x="101.367188"/>
       <use xlink:href="#Calibri-4d" x="131.982422"/>
       <use xlink:href="#Calibri-61" x="217.480469"/>
       <use xlink:href="#Calibri-79" x="265.380859"/>
      </g>
     </g>
    </g>
    <g id="xtick_4">
     <g id="line2d_4">
      <path d="M 500.7 526.34625 
L 500.7 38.8475 
" clip-path="url(#paa9f073c77)" style="fill: none; stroke-dasharray: 2.96,1.28; stroke-dashoffset: 0; stroke: #666666; stroke-opacity: 0.2; stroke-width: 0.8"/>
     </g>
     <g id="text_4">
      <!-- 27-May -->
      <g style="fill: #262626" transform="translate(492.413427 561.444781) rotate(-45) scale(0.09 -0.09)">
       <defs>
        <path id="Calibri-37" d="M 2947 3813 
Q 2947 3756 2942 3711 
Q 2938 3666 2930 3623 
Q 2922 3581 2908 3542 
Q 2894 3503 2875 3459 
L 1419 103 
Q 1403 66 1379 42 
Q 1356 19 1320 5 
Q 1284 -9 1228 -14 
Q 1172 -19 1091 -19 
Q 984 -19 925 -9 
Q 866 0 839 20 
Q 813 41 816 70 
Q 819 100 838 141 
L 2369 3572 
L 428 3572 
Q 369 3572 339 3634 
Q 309 3697 309 3809 
Q 309 3869 317 3912 
Q 325 3956 340 3986 
Q 356 4016 378 4030 
Q 400 4044 428 4044 
L 2784 4044 
Q 2828 4044 2861 4034 
Q 2894 4025 2911 3997 
Q 2928 3969 2937 3925 
Q 2947 3881 2947 3813 
z
" transform="scale(0.015625)"/>
       </defs>
       <use xlink:href="#Calibri-32"/>
       <use xlink:href="#Calibri-37" x="50.683594"/>
       <use xlink:href="#Calibri-2d" x="101.367188"/>
       <use xlink:href="#Calibri-4d" x="131.982422"/>
       <use xlink:href="#Calibri-61" x="217.480469"/>
       <use xlink:href="#Calibri-79" x="265.380859"/>
      </g>
     </g>
    </g>
    <g id="xtick_5">
     <g id="line2d_5">
      <path d="M 638.281818 526.34625 
L 638.281818 38.8475 
" clip-path="url(#paa9f073c77)" style="fill: none; stroke-dasharray: 2.96,1.28; stroke-dashoffset: 0; stroke: #666666; stroke-opacity: 0.2; stroke-width: 0.8"/>
     </g>
     <g id="text_5">
      <!-- 30-May -->
      <g style="fill: #262626" transform="translate(629.995245 561.444781) rotate(-45) scale(0.09 -0.09)">
       <defs>
        <path id="Calibri-33" d="M 2856 1156 
Q 2856 878 2759 654 
Q 2663 431 2481 272 
Q 2300 113 2034 27 
Q 1769 -59 1434 -59 
Q 1231 -59 1054 -26 
Q 878 6 740 51 
Q 603 97 512 145 
Q 422 194 398 216 
Q 375 238 362 259 
Q 350 281 340 312 
Q 331 344 326 389 
Q 322 434 322 500 
Q 322 613 344 656 
Q 366 700 406 700 
Q 434 700 517 650 
Q 600 600 729 542 
Q 859 484 1032 434 
Q 1206 384 1419 384 
Q 1625 384 1781 437 
Q 1938 491 2044 587 
Q 2150 684 2203 817 
Q 2256 950 2256 1106 
Q 2256 1278 2189 1415 
Q 2122 1553 1992 1653 
Q 1863 1753 1673 1806 
Q 1484 1859 1244 1859 
L 859 1859 
Q 834 1859 811 1870 
Q 788 1881 770 1906 
Q 753 1931 742 1972 
Q 731 2013 731 2078 
Q 731 2138 740 2177 
Q 750 2216 767 2239 
Q 784 2263 806 2273 
Q 828 2284 856 2284 
L 1209 2284 
Q 1416 2284 1580 2337 
Q 1744 2391 1858 2491 
Q 1972 2591 2033 2730 
Q 2094 2869 2094 3041 
Q 2094 3166 2053 3280 
Q 2013 3394 1931 3478 
Q 1850 3563 1723 3611 
Q 1597 3659 1431 3659 
Q 1250 3659 1098 3604 
Q 947 3550 828 3487 
Q 709 3425 631 3370 
Q 553 3316 522 3316 
Q 500 3316 483 3323 
Q 466 3331 455 3354 
Q 444 3378 439 3420 
Q 434 3463 434 3531 
Q 434 3578 437 3614 
Q 441 3650 450 3676 
Q 459 3703 471 3725 
Q 484 3747 514 3776 
Q 544 3806 634 3862 
Q 725 3919 858 3973 
Q 991 4028 1164 4065 
Q 1338 4103 1538 4103 
Q 1819 4103 2031 4031 
Q 2244 3959 2386 3828 
Q 2528 3697 2598 3514 
Q 2669 3331 2669 3109 
Q 2669 2919 2619 2755 
Q 2569 2591 2472 2464 
Q 2375 2338 2234 2248 
Q 2094 2159 1909 2125 
L 1909 2119 
Q 2119 2097 2292 2014 
Q 2466 1931 2591 1806 
Q 2716 1681 2786 1514 
Q 2856 1347 2856 1156 
z
" transform="scale(0.015625)"/>
        <path id="Calibri-30" d="M 3022 2031 
Q 3022 1566 2948 1181 
Q 2875 797 2704 520 
Q 2534 244 2259 92 
Q 1984 -59 1581 -59 
Q 1200 -59 939 77 
Q 678 213 518 477 
Q 359 741 292 1127 
Q 225 1513 225 2013 
Q 225 2475 300 2861 
Q 375 3247 544 3523 
Q 713 3800 988 3951 
Q 1263 4103 1663 4103 
Q 2047 4103 2308 3967 
Q 2569 3831 2728 3567 
Q 2888 3303 2955 2917 
Q 3022 2531 3022 2031 
z
M 2472 1994 
Q 2472 2297 2450 2537 
Q 2428 2778 2386 2962 
Q 2344 3147 2276 3280 
Q 2209 3413 2115 3498 
Q 2022 3584 1901 3623 
Q 1781 3663 1631 3663 
Q 1366 3663 1200 3538 
Q 1034 3413 939 3194 
Q 844 2975 809 2681 
Q 775 2388 775 2050 
Q 775 1597 822 1280 
Q 869 963 970 763 
Q 1072 563 1230 472 
Q 1388 381 1613 381 
Q 1788 381 1920 437 
Q 2053 494 2148 598 
Q 2244 703 2306 850 
Q 2369 997 2406 1175 
Q 2444 1353 2458 1561 
Q 2472 1769 2472 1994 
z
" transform="scale(0.015625)"/>
       </defs>
       <use xlink:href="#Calibri-33"/>
       <use xlink:href="#Calibri-30" x="50.683594"/>
       <use xlink:href="#Calibri-2d" x="101.367188"/>
       <use xlink:href="#Calibri-4d" x="131.982422"/>
       <use xlink:href="#Calibri-61" x="217.480469"/>
       <use xlink:href="#Calibri-79" x="265.380859"/>
      </g>
     </g>
    </g>
    <g id="xtick_6">
     <g id="line2d_6">
      <path d="M 775.863636 526.34625 
L 775.863636 38.8475 
" clip-path="url(#paa9f073c77)" style="fill: none; stroke-dasharray: 2.96,1.28; stroke-dashoffset: 0; stroke: #666666; stroke-opacity: 0.2; stroke-width: 0.8"/>
     </g>
     <g id="text_6">
      <!-- 02-Jun -->
      <g style="fill: #262626" transform="translate(768.903551 558.791804) rotate(-45) scale(0.09 -0.09)">
       <defs>
        <path id="Calibri-4a" d="M 1513 1019 
Q 1513 778 1469 578 
Q 1425 378 1319 237 
Q 1213 97 1039 20 
Q 866 -56 609 -56 
Q 522 -56 436 -42 
Q 350 -28 278 -4 
Q 206 19 153 45 
Q 100 72 83 90 
Q 66 109 55 128 
Q 44 147 36 173 
Q 28 200 25 239 
Q 22 278 22 334 
Q 22 403 26 448 
Q 31 494 43 520 
Q 56 547 73 558 
Q 91 569 116 569 
Q 141 569 180 545 
Q 219 522 273 494 
Q 328 466 400 442 
Q 472 419 569 419 
Q 675 419 750 445 
Q 825 472 875 544 
Q 925 616 950 742 
Q 975 869 975 1072 
L 975 3966 
Q 975 3988 987 4006 
Q 1000 4025 1031 4037 
Q 1063 4050 1114 4056 
Q 1166 4063 1244 4063 
Q 1319 4063 1372 4056 
Q 1425 4050 1454 4037 
Q 1484 4025 1498 4006 
Q 1513 3988 1513 3966 
L 1513 1019 
z
" transform="scale(0.015625)"/>
        <path id="Calibri-75" d="M 2888 78 
Q 2888 53 2877 36 
Q 2866 19 2837 6 
Q 2809 -6 2764 -12 
Q 2719 -19 2653 -19 
Q 2581 -19 2536 -12 
Q 2491 -6 2464 6 
Q 2438 19 2428 36 
Q 2419 53 2419 78 
L 2419 450 
Q 2178 184 1943 62 
Q 1709 -59 1469 -59 
Q 1188 -59 995 34 
Q 803 128 684 289 
Q 566 450 514 664 
Q 463 878 463 1184 
L 463 2891 
Q 463 2916 473 2933 
Q 484 2950 515 2964 
Q 547 2978 597 2983 
Q 647 2988 722 2988 
Q 797 2988 847 2983 
Q 897 2978 926 2964 
Q 956 2950 968 2933 
Q 981 2916 981 2891 
L 981 1253 
Q 981 1006 1017 857 
Q 1053 709 1126 604 
Q 1200 500 1312 442 
Q 1425 384 1575 384 
Q 1769 384 1961 521 
Q 2153 659 2369 925 
L 2369 2891 
Q 2369 2916 2380 2933 
Q 2391 2950 2422 2964 
Q 2453 2978 2501 2983 
Q 2550 2988 2628 2988 
Q 2703 2988 2753 2983 
Q 2803 2978 2831 2964 
Q 2859 2950 2873 2933 
Q 2888 2916 2888 2891 
L 2888 78 
z
" transform="scale(0.015625)"/>
        <path id="Calibri-6e" d="M 2900 78 
Q 2900 53 2887 36 
Q 2875 19 2847 6 
Q 2819 -6 2769 -12 
Q 2719 -19 2644 -19 
Q 2566 -19 2516 -12 
Q 2466 -6 2437 6 
Q 2409 19 2396 36 
Q 2384 53 2384 78 
L 2384 1725 
Q 2384 1966 2346 2112 
Q 2309 2259 2237 2365 
Q 2166 2472 2052 2528 
Q 1938 2584 1788 2584 
Q 1594 2584 1400 2446 
Q 1206 2309 994 2044 
L 994 78 
Q 994 53 981 36 
Q 969 19 941 6 
Q 913 -6 863 -12 
Q 813 -19 734 -19 
Q 659 -19 609 -12 
Q 559 -6 529 6 
Q 500 19 489 36 
Q 478 53 478 78 
L 478 2891 
Q 478 2916 487 2933 
Q 497 2950 525 2964 
Q 553 2978 597 2983 
Q 641 2988 713 2988 
Q 781 2988 826 2983 
Q 872 2978 897 2964 
Q 922 2950 933 2933 
Q 944 2916 944 2891 
L 944 2519 
Q 1181 2784 1417 2907 
Q 1653 3031 1894 3031 
Q 2175 3031 2367 2936 
Q 2559 2841 2678 2681 
Q 2797 2522 2848 2308 
Q 2900 2094 2900 1794 
L 2900 78 
z
" transform="scale(0.015625)"/>
       </defs>
       <use xlink:href="#Calibri-30"/>
       <use xlink:href="#Calibri-32" x="50.683594"/>
       <use xlink:href="#Calibri-2d" x="101.367188"/>
       <use xlink:href="#Calibri-4a" x="131.982422"/>
       <use xlink:href="#Calibri-75" x="163.867188"/>
       <use xlink:href="#Calibri-6e" x="216.40625"/>
      </g>
     </g>
    </g>
    <g id="xtick_7">
     <g id="line2d_7">
      <path d="M 913.445455 526.34625 
L 913.445455 38.8475 
" clip-path="url(#paa9f073c77)" style="fill: none; stroke-dasharray: 2.96,1.28; stroke-dashoffset: 0; stroke: #666666; stroke-opacity: 0.2; stroke-width: 0.8"/>
     </g>
     <g id="text_7">
      <!-- 05-Jun -->
      <g style="fill: #262626" transform="translate(906.485369 558.791804) rotate(-45) scale(0.09 -0.09)">
       <defs>
        <path id="Calibri-35" d="M 2869 1300 
Q 2869 975 2759 722 
Q 2650 469 2450 295 
Q 2250 122 1973 31 
Q 1697 -59 1359 -59 
Q 1172 -59 1003 -32 
Q 834 -6 703 33 
Q 572 72 487 109 
Q 403 147 379 169 
Q 356 191 347 209 
Q 338 228 330 254 
Q 322 281 319 322 
Q 316 363 316 419 
Q 316 472 320 514 
Q 325 556 337 582 
Q 350 609 367 621 
Q 384 634 406 634 
Q 438 634 503 595 
Q 569 556 680 511 
Q 791 466 955 425 
Q 1119 384 1344 384 
Q 1553 384 1728 434 
Q 1903 484 2029 590 
Q 2156 697 2228 858 
Q 2300 1019 2300 1250 
Q 2300 1444 2239 1592 
Q 2178 1741 2051 1839 
Q 1925 1938 1731 1986 
Q 1538 2034 1269 2034 
Q 1078 2034 940 2015 
Q 803 1997 684 1997 
Q 597 1997 559 2037 
Q 522 2078 522 2194 
L 522 3841 
Q 522 3944 570 3994 
Q 619 4044 709 4044 
L 2500 4044 
Q 2525 4044 2548 4030 
Q 2572 4016 2587 3987 
Q 2603 3959 2611 3915 
Q 2619 3872 2619 3813 
Q 2619 3700 2587 3637 
Q 2556 3575 2500 3575 
L 991 3575 
L 991 2441 
Q 1100 2456 1214 2459 
Q 1328 2463 1478 2463 
Q 1825 2463 2084 2380 
Q 2344 2297 2517 2145 
Q 2691 1994 2780 1778 
Q 2869 1563 2869 1300 
z
" transform="scale(0.015625)"/>
       </defs>
       <use xlink:href="#Calibri-30"/>
       <use xlink:href="#Calibri-35" x="50.683594"/>
       <use xlink:href="#Calibri-2d" x="101.367188"/>
       <use xlink:href="#Calibri-4a" x="131.982422"/>
       <use xlink:href="#Calibri-75" x="163.867188"/>
       <use xlink:href="#Calibri-6e" x="216.40625"/>
      </g>
     </g>
    </g>
   </g>
   <g id="matplotlib.axis_2">
    <g id="ytick_1">
     <g id="line2d_8">
      <path d="M 46.68 526.34625 
L 954.72 526.34625 
" clip-path="url(#paa9f073c77)" style="fill: none; stroke-dasharray: 2.96,1.28; stroke-dashoffset: 0; stroke: #666666; stroke-opacity: 0.3; stroke-width: 0.8"/>
     </g>
     <g id="line2d_9">
      <defs>
       <path id="m048a43acfb" d="M 0 0 
L -6 0 
" style="stroke: #333333; stroke-width: 1.25"/>
      </defs>
      <g>
       <use xlink:href="#m048a43acfb" x="46.68" y="526.34625" style="fill: #333333; stroke: #333333; stroke-width: 1.25"/>
      </g>
     </g>
     <g id="text_8">
      <!-- 0 -->
      <g style="fill: #262626" transform="translate(32.618125 529.406953) scale(0.09 -0.09)">
       <use xlink:href="#Calibri-30"/>
      </g>
     </g>
    </g>
    <g id="ytick_2">
     <g id="line2d_10">
      <path d="M 46.68 420.368261 
L 954.72 420.368261 
" clip-path="url(#paa9f073c77)" style="fill: none; stroke-dasharray: 2.96,1.28; stroke-dashoffset: 0; stroke: #666666; stroke-opacity: 0.3; stroke-width: 0.8"/>
     </g>
     <g id="line2d_11">
      <g>
       <use xlink:href="#m048a43acfb" x="46.68" y="420.368261" style="fill: #333333; stroke: #333333; stroke-width: 1.25"/>
      </g>
     </g>
     <g id="text_9">
      <!-- 5 -->
      <g style="fill: #262626" transform="translate(32.618125 423.428964) scale(0.09 -0.09)">
       <use xlink:href="#Calibri-35"/>
      </g>
     </g>
    </g>
    <g id="ytick_3">
     <g id="line2d_12">
      <path d="M 46.68 314.390272 
L 954.72 314.390272 
" clip-path="url(#paa9f073c77)" style="fill: none; stroke-dasharray: 2.96,1.28; stroke-dashoffset: 0; stroke: #666666; stroke-opacity: 0.3; stroke-width: 0.8"/>
     </g>
     <g id="line2d_13">
      <g>
       <use xlink:href="#m048a43acfb" x="46.68" y="314.390272" style="fill: #333333; stroke: #333333; stroke-width: 1.25"/>
      </g>
     </g>
     <g id="text_10">
      <!-- 10 -->
      <g style="fill: #262626" transform="translate(28.05625 317.450975) scale(0.09 -0.09)">
       <use xlink:href="#Calibri-31"/>
       <use xlink:href="#Calibri-30" x="50.683594"/>
      </g>
     </g>
    </g>
    <g id="ytick_4">
     <g id="line2d_14">
      <path d="M 46.68 208.412283 
L 954.72 208.412283 
" clip-path="url(#paa9f073c77)" style="fill: none; stroke-dasharray: 2.96,1.28; stroke-dashoffset: 0; stroke: #666666; stroke-opacity: 0.3; stroke-width: 0.8"/>
     </g>
     <g id="line2d_15">
      <g>
       <use xlink:href="#m048a43acfb" x="46.68" y="208.412283" style="fill: #333333; stroke: #333333; stroke-width: 1.25"/>
      </g>
     </g>
     <g id="text_11">
      <!-- 15 -->
      <g style="fill: #262626" transform="translate(28.05625 211.472986) scale(0.09 -0.09)">
       <use xlink:href="#Calibri-31"/>
       <use xlink:href="#Calibri-35" x="50.683594"/>
      </g>
     </g>
    </g>
    <g id="ytick_5">
     <g id="line2d_16">
      <path d="M 46.68 102.434293 
L 954.72 102.434293 
" clip-path="url(#paa9f073c77)" style="fill: none; stroke-dasharray: 2.96,1.28; stroke-dashoffset: 0; stroke: #666666; stroke-opacity: 0.3; stroke-width: 0.8"/>
     </g>
     <g id="line2d_17">
      <g>
       <use xlink:href="#m048a43acfb" x="46.68" y="102.434293" style="fill: #333333; stroke: #333333; stroke-width: 1.25"/>
      </g>
     </g>
     <g id="text_12">
      <!-- 20 -->
      <g style="fill: #262626" transform="translate(28.05625 105.494997) scale(0.09 -0.09)">
       <use xlink:href="#Calibri-32"/>
       <use xlink:href="#Calibri-30" x="50.683594"/>
      </g>
     </g>
    </g>
    <g id="text_13">
     <!-- Cumulative Site Count -->
     <g style="fill: #333333" transform="translate(15.87 337.315) rotate(-90) scale(0.11 -0.11)">
      <defs>
       <path id="ArialMT-43" d="M 3763 1606 
L 4369 1453 
Q 4178 706 3683 314 
Q 3188 -78 2472 -78 
Q 1731 -78 1267 223 
Q 803 525 561 1097 
Q 319 1669 319 2325 
Q 319 3041 592 3573 
Q 866 4106 1370 4382 
Q 1875 4659 2481 4659 
Q 3169 4659 3637 4309 
Q 4106 3959 4291 3325 
L 3694 3184 
Q 3534 3684 3231 3912 
Q 2928 4141 2469 4141 
Q 1941 4141 1586 3887 
Q 1231 3634 1087 3207 
Q 944 2781 944 2328 
Q 944 1744 1114 1308 
Q 1284 872 1643 656 
Q 2003 441 2422 441 
Q 2931 441 3284 734 
Q 3638 1028 3763 1606 
z
" transform="scale(0.015625)"/>
       <path id="ArialMT-75" d="M 2597 0 
L 2597 488 
Q 2209 -75 1544 -75 
Q 1250 -75 995 37 
Q 741 150 617 320 
Q 494 491 444 738 
Q 409 903 409 1263 
L 409 3319 
L 972 3319 
L 972 1478 
Q 972 1038 1006 884 
Q 1059 663 1231 536 
Q 1403 409 1656 409 
Q 1909 409 2131 539 
Q 2353 669 2445 892 
Q 2538 1116 2538 1541 
L 2538 3319 
L 3100 3319 
L 3100 0 
L 2597 0 
z
" transform="scale(0.015625)"/>
       <path id="ArialMT-6d" d="M 422 0 
L 422 3319 
L 925 3319 
L 925 2853 
Q 1081 3097 1340 3245 
Q 1600 3394 1931 3394 
Q 2300 3394 2536 3241 
Q 2772 3088 2869 2813 
Q 3263 3394 3894 3394 
Q 4388 3394 4653 3120 
Q 4919 2847 4919 2278 
L 4919 0 
L 4359 0 
L 4359 2091 
Q 4359 2428 4304 2576 
Q 4250 2725 4106 2815 
Q 3963 2906 3769 2906 
Q 3419 2906 3187 2673 
Q 2956 2441 2956 1928 
L 2956 0 
L 2394 0 
L 2394 2156 
Q 2394 2531 2256 2718 
Q 2119 2906 1806 2906 
Q 1569 2906 1367 2781 
Q 1166 2656 1075 2415 
Q 984 2175 984 1722 
L 984 0 
L 422 0 
z
" transform="scale(0.015625)"/>
       <path id="ArialMT-6c" d="M 409 0 
L 409 4581 
L 972 4581 
L 972 0 
L 409 0 
z
" transform="scale(0.015625)"/>
       <path id="ArialMT-61" d="M 2588 409 
Q 2275 144 1986 34 
Q 1697 -75 1366 -75 
Q 819 -75 525 192 
Q 231 459 231 875 
Q 231 1119 342 1320 
Q 453 1522 633 1644 
Q 813 1766 1038 1828 
Q 1203 1872 1538 1913 
Q 2219 1994 2541 2106 
Q 2544 2222 2544 2253 
Q 2544 2597 2384 2738 
Q 2169 2928 1744 2928 
Q 1347 2928 1158 2789 
Q 969 2650 878 2297 
L 328 2372 
Q 403 2725 575 2942 
Q 747 3159 1072 3276 
Q 1397 3394 1825 3394 
Q 2250 3394 2515 3294 
Q 2781 3194 2906 3042 
Q 3031 2891 3081 2659 
Q 3109 2516 3109 2141 
L 3109 1391 
Q 3109 606 3145 398 
Q 3181 191 3288 0 
L 2700 0 
Q 2613 175 2588 409 
z
M 2541 1666 
Q 2234 1541 1622 1453 
Q 1275 1403 1131 1340 
Q 988 1278 909 1158 
Q 831 1038 831 891 
Q 831 666 1001 516 
Q 1172 366 1500 366 
Q 1825 366 2078 508 
Q 2331 650 2450 897 
Q 2541 1088 2541 1459 
L 2541 1666 
z
" transform="scale(0.015625)"/>
       <path id="ArialMT-74" d="M 1650 503 
L 1731 6 
Q 1494 -44 1306 -44 
Q 1000 -44 831 53 
Q 663 150 594 308 
Q 525 466 525 972 
L 525 2881 
L 113 2881 
L 113 3319 
L 525 3319 
L 525 4141 
L 1084 4478 
L 1084 3319 
L 1650 3319 
L 1650 2881 
L 1084 2881 
L 1084 941 
Q 1084 700 1114 631 
Q 1144 563 1211 522 
Q 1278 481 1403 481 
Q 1497 481 1650 503 
z
" transform="scale(0.015625)"/>
       <path id="ArialMT-69" d="M 425 3934 
L 425 4581 
L 988 4581 
L 988 3934 
L 425 3934 
z
M 425 0 
L 425 3319 
L 988 3319 
L 988 0 
L 425 0 
z
" transform="scale(0.015625)"/>
       <path id="ArialMT-76" d="M 1344 0 
L 81 3319 
L 675 3319 
L 1388 1331 
Q 1503 1009 1600 663 
Q 1675 925 1809 1294 
L 2547 3319 
L 3125 3319 
L 1869 0 
L 1344 0 
z
" transform="scale(0.015625)"/>
       <path id="ArialMT-65" d="M 2694 1069 
L 3275 997 
Q 3138 488 2766 206 
Q 2394 -75 1816 -75 
Q 1088 -75 661 373 
Q 234 822 234 1631 
Q 234 2469 665 2931 
Q 1097 3394 1784 3394 
Q 2450 3394 2872 2941 
Q 3294 2488 3294 1666 
Q 3294 1616 3291 1516 
L 816 1516 
Q 847 969 1125 678 
Q 1403 388 1819 388 
Q 2128 388 2347 550 
Q 2566 713 2694 1069 
z
M 847 1978 
L 2700 1978 
Q 2663 2397 2488 2606 
Q 2219 2931 1791 2931 
Q 1403 2931 1139 2672 
Q 875 2413 847 1978 
z
" transform="scale(0.015625)"/>
       <path id="ArialMT-20" transform="scale(0.015625)"/>
       <path id="ArialMT-53" d="M 288 1472 
L 859 1522 
Q 900 1178 1048 958 
Q 1197 738 1509 602 
Q 1822 466 2213 466 
Q 2559 466 2825 569 
Q 3091 672 3220 851 
Q 3350 1031 3350 1244 
Q 3350 1459 3225 1620 
Q 3100 1781 2813 1891 
Q 2628 1963 1997 2114 
Q 1366 2266 1113 2400 
Q 784 2572 623 2826 
Q 463 3081 463 3397 
Q 463 3744 659 4045 
Q 856 4347 1234 4503 
Q 1613 4659 2075 4659 
Q 2584 4659 2973 4495 
Q 3363 4331 3572 4012 
Q 3781 3694 3797 3291 
L 3216 3247 
Q 3169 3681 2898 3903 
Q 2628 4125 2100 4125 
Q 1550 4125 1298 3923 
Q 1047 3722 1047 3438 
Q 1047 3191 1225 3031 
Q 1400 2872 2139 2705 
Q 2878 2538 3153 2413 
Q 3553 2228 3743 1945 
Q 3934 1663 3934 1294 
Q 3934 928 3725 604 
Q 3516 281 3123 101 
Q 2731 -78 2241 -78 
Q 1619 -78 1198 103 
Q 778 284 539 648 
Q 300 1013 288 1472 
z
" transform="scale(0.015625)"/>
       <path id="ArialMT-6f" d="M 213 1659 
Q 213 2581 725 3025 
Q 1153 3394 1769 3394 
Q 2453 3394 2887 2945 
Q 3322 2497 3322 1706 
Q 3322 1066 3130 698 
Q 2938 331 2570 128 
Q 2203 -75 1769 -75 
Q 1072 -75 642 372 
Q 213 819 213 1659 
z
M 791 1659 
Q 791 1022 1069 705 
Q 1347 388 1769 388 
Q 2188 388 2466 706 
Q 2744 1025 2744 1678 
Q 2744 2294 2464 2611 
Q 2184 2928 1769 2928 
Q 1347 2928 1069 2612 
Q 791 2297 791 1659 
z
" transform="scale(0.015625)"/>
       <path id="ArialMT-6e" d="M 422 0 
L 422 3319 
L 928 3319 
L 928 2847 
Q 1294 3394 1984 3394 
Q 2284 3394 2536 3286 
Q 2788 3178 2913 3003 
Q 3038 2828 3088 2588 
Q 3119 2431 3119 2041 
L 3119 0 
L 2556 0 
L 2556 2019 
Q 2556 2363 2490 2533 
Q 2425 2703 2258 2804 
Q 2091 2906 1866 2906 
Q 1506 2906 1245 2678 
Q 984 2450 984 1813 
L 984 0 
L 422 0 
z
" transform="scale(0.015625)"/>
      </defs>
      <use xlink:href="#ArialMT-43"/>
      <use xlink:href="#ArialMT-75" x="72.216797"/>
      <use xlink:href="#ArialMT-6d" x="127.832031"/>
      <use xlink:href="#ArialMT-75" x="211.132812"/>
      <use xlink:href="#ArialMT-6c" x="266.748047"/>
      <use xlink:href="#ArialMT-61" x="288.964844"/>
      <use xlink:href="#ArialMT-74" x="344.580078"/>
      <use xlink:href="#ArialMT-69" x="372.363281"/>
      <use xlink:href="#ArialMT-76" x="394.580078"/>
      <use xlink:href="#ArialMT-65" x="444.580078"/>
      <use xlink:href="#ArialMT-20" x="500.195312"/>
      <use xlink:href="#ArialMT-53" x="527.978516"/>
      <use xlink:href="#ArialMT-69" x="594.677734"/>
      <use xlink:href="#ArialMT-74" x="616.894531"/>
      <use xlink:href="#ArialMT-65" x="644.677734"/>
      <use xlink:href="#ArialMT-20" x="700.292969"/>
      <use xlink:href="#ArialMT-43" x="728.076172"/>
      <use xlink:href="#ArialMT-6f" x="800.292969"/>
      <use xlink:href="#ArialMT-75" x="855.908203"/>
      <use xlink:href="#ArialMT-6e" x="911.523438"/>
      <use xlink:href="#ArialMT-74" x="967.138672"/>
     </g>
    </g>
   </g>
   <g id="patch_3">
    <path d="M 46.68 526.34625 
L 46.68 38.8475 
" style="fill: none; stroke: #cccccc; stroke-linejoin: miter; stroke-linecap: square"/>
   </g>
   <g id="patch_4">
    <path d="M 954.72 526.34625 
L 954.72 38.8475 
" style="fill: none; stroke: #cccccc; stroke-linejoin: miter; stroke-linecap: square"/>
   </g>
   <g id="patch_5">
    <path d="M 46.68 526.34625 
L 954.72 526.34625 
" style="fill: none; stroke: #cccccc; stroke-linejoin: miter; stroke-linecap: square"/>
   </g>
   <g id="line2d_18">
    <path d="M 87.954545 462.759457 
L 133.815152 462.759457 
L 179.675758 462.759457 
L 225.536364 399.172663 
L 271.39697 399.172663 
L 317.257576 399.172663 
L 363.118182 335.58587 
L 408.978788 335.58587 
L 454.839394 335.58587 
L 500.7 271.999076 
L 546.560606 271.999076 
L 592.421212 271.999076 
L 638.281818 208.412283 
L 684.142424 208.412283 
L 730.00303 208.412283 
L 775.863636 144.825489 
L 821.724242 144.825489 
L 867.584848 144.825489 
L 913.445455 102.434293 
" clip-path="url(#paa9f073c77)" style="fill: none; stroke: #0a62a9; stroke-width: 2; stroke-linecap: round"/>
    <defs>
     <path id="m45d06901bf" d="M 0 2 
C 0.530406 2 1.03916 1.789267 1.414214 1.414214 
C 1.789267 1.03916 2 0.530406 2 0 
C 2 -0.530406 1.789267 -1.03916 1.414214 -1.414214 
C 1.03916 -1.789267 0.530406 -2 0 -2 
C -0.530406 -2 -1.03916 -1.789267 -1.414214 -1.414214 
C -1.789267 -1.03916 -2 -0.530406 -2 0 
C -2 0.530406 -1.789267 1.03916 -1.414214 1.414214 
C -1.03916 1.789267 -0.530406 2 0 2 
z
" style="stroke: #0a62a9"/>
    </defs>
    <g clip-path="url(#paa9f073c77)">
     <use xlink:href="#m45d06901bf" x="87.954545" y="462.759457" style="fill: #0a62a9; stroke: #0a62a9"/>
     <use xlink:href="#m45d06901bf" x="133.815152" y="462.759457" style="fill: #0a62a9; stroke: #0a62a9"/>
     <use xlink:href="#m45d06901bf" x="179.675758" y="462.759457" style="fill: #0a62a9; stroke: #0a62a9"/>
     <use xlink:href="#m45d06901bf" x="225.536364" y="399.172663" style="fill: #0a62a9; stroke: #0a62a9"/>
     <use xlink:href="#m45d06901bf" x="271.39697" y="399.172663" style="fill: #0a62a9; stroke: #0a62a9"/>
     <use xlink:href="#m45d06901bf" x="317.257576" y="399.172663" style="fill: #0a62a9; stroke: #0a62a9"/>
     <use xlink:href="#m45d06901bf" x="363.118182" y="335.58587" style="fill: #0a62a9; stroke: #0a62a9"/>
     <use xlink:href="#m45d06901bf" x="408.978788" y="335.58587" style="fill: #0a62a9; stroke: #0a62a9"/>
     <use xlink:href="#m45d06901bf" x="454.839394" y="335.58587" style="fill: #0a62a9; stroke: #0a62a9"/>
     <use xlink:href="#m45d06901bf" x="500.7" y="271.999076" style="fill: #0a62a9; stroke: #0a62a9"/>
     <use xlink:href="#m45d06901bf" x="546.560606" y="271.999076" style="fill: #0a62a9; stroke: #0a62a9"/>
     <use xlink:href="#m45d06901bf" x="592.421212" y="271.999076" style="fill: #0a62a9; stroke: #0a62a9"/>
     <use xlink:href="#m45d06901bf" x="638.281818" y="208.412283" style="fill: #0a62a9; stroke: #0a62a9"/>
     <use xlink:href="#m45d06901bf" x="684.142424" y="208.412283" style="fill: #0a62a9; stroke: #0a62a9"/>
     <use xlink:href="#m45d06901bf" x="730.00303" y="208.412283" style="fill: #0a62a9; stroke: #0a62a9"/>
     <use xlink:href="#m45d06901bf" x="775.863636" y="144.825489" style="fill: #0a62a9; stroke: #0a62a9"/>
     <use xlink:href="#m45d06901bf" x="821.724242" y="144.825489" style="fill: #0a62a9; stroke: #0a62a9"/>
     <use xlink:href="#m45d06901bf" x="867.584848" y="144.825489" style="fill: #0a62a9; stroke: #0a62a9"/>
     <use xlink:href="#m45d06901bf" x="913.445455" y="102.434293" style="fill: #0a62a9; stroke: #0a62a9"/>
    </g>
   </g>
   <g id="text_14">
    <!-- Daily Implementation Progress Report: ALU PROJECT_HUAWEI_REDEPLOY(20) -->
    <g style="fill: #333333" transform="translate(195.17125 18.8475) scale(0.16 -0.16)">
     <defs>
      <path id="Arial-BoldMT-44" d="M 463 4581 
L 2153 4581 
Q 2725 4581 3025 4494 
Q 3428 4375 3715 4072 
Q 4003 3769 4153 3330 
Q 4303 2891 4303 2247 
Q 4303 1681 4163 1272 
Q 3991 772 3672 463 
Q 3431 228 3022 97 
Q 2716 0 2203 0 
L 463 0 
L 463 4581 
z
M 1388 3806 
L 1388 772 
L 2078 772 
Q 2466 772 2638 816 
Q 2863 872 3011 1006 
Q 3159 1141 3253 1448 
Q 3347 1756 3347 2288 
Q 3347 2819 3253 3103 
Q 3159 3388 2990 3547 
Q 2822 3706 2563 3763 
Q 2369 3806 1803 3806 
L 1388 3806 
z
" transform="scale(0.015625)"/>
      <path id="Arial-BoldMT-61" d="M 1116 2306 
L 319 2450 
Q 453 2931 781 3162 
Q 1109 3394 1756 3394 
Q 2344 3394 2631 3255 
Q 2919 3116 3036 2902 
Q 3153 2688 3153 2116 
L 3144 1091 
Q 3144 653 3186 445 
Q 3228 238 3344 0 
L 2475 0 
Q 2441 88 2391 259 
Q 2369 338 2359 363 
Q 2134 144 1878 34 
Q 1622 -75 1331 -75 
Q 819 -75 523 203 
Q 228 481 228 906 
Q 228 1188 362 1408 
Q 497 1628 739 1745 
Q 981 1863 1438 1950 
Q 2053 2066 2291 2166 
L 2291 2253 
Q 2291 2506 2166 2614 
Q 2041 2722 1694 2722 
Q 1459 2722 1328 2630 
Q 1197 2538 1116 2306 
z
M 2291 1594 
Q 2122 1538 1756 1459 
Q 1391 1381 1278 1306 
Q 1106 1184 1106 997 
Q 1106 813 1243 678 
Q 1381 544 1594 544 
Q 1831 544 2047 700 
Q 2206 819 2256 991 
Q 2291 1103 2291 1419 
L 2291 1594 
z
" transform="scale(0.015625)"/>
      <path id="Arial-BoldMT-69" d="M 459 3769 
L 459 4581 
L 1338 4581 
L 1338 3769 
L 459 3769 
z
M 459 0 
L 459 3319 
L 1338 3319 
L 1338 0 
L 459 0 
z
" transform="scale(0.015625)"/>
      <path id="Arial-BoldMT-6c" d="M 459 0 
L 459 4581 
L 1338 4581 
L 1338 0 
L 459 0 
z
" transform="scale(0.015625)"/>
      <path id="Arial-BoldMT-79" d="M 44 3319 
L 978 3319 
L 1772 963 
L 2547 3319 
L 3456 3319 
L 2284 125 
L 2075 -453 
Q 1959 -744 1854 -897 
Q 1750 -1050 1614 -1145 
Q 1478 -1241 1279 -1294 
Q 1081 -1347 831 -1347 
Q 578 -1347 334 -1294 
L 256 -606 
Q 463 -647 628 -647 
Q 934 -647 1081 -467 
Q 1228 -288 1306 -9 
L 44 3319 
z
" transform="scale(0.015625)"/>
      <path id="Arial-BoldMT-20" transform="scale(0.015625)"/>
      <path id="Arial-BoldMT-49" d="M 438 0 
L 438 4581 
L 1363 4581 
L 1363 0 
L 438 0 
z
" transform="scale(0.015625)"/>
      <path id="Arial-BoldMT-6d" d="M 394 3319 
L 1203 3319 
L 1203 2866 
Q 1638 3394 2238 3394 
Q 2556 3394 2790 3262 
Q 3025 3131 3175 2866 
Q 3394 3131 3647 3262 
Q 3900 3394 4188 3394 
Q 4553 3394 4806 3245 
Q 5059 3097 5184 2809 
Q 5275 2597 5275 2122 
L 5275 0 
L 4397 0 
L 4397 1897 
Q 4397 2391 4306 2534 
Q 4184 2722 3931 2722 
Q 3747 2722 3584 2609 
Q 3422 2497 3350 2280 
Q 3278 2063 3278 1594 
L 3278 0 
L 2400 0 
L 2400 1819 
Q 2400 2303 2353 2443 
Q 2306 2584 2207 2653 
Q 2109 2722 1941 2722 
Q 1738 2722 1575 2612 
Q 1413 2503 1342 2297 
Q 1272 2091 1272 1613 
L 1272 0 
L 394 0 
L 394 3319 
z
" transform="scale(0.015625)"/>
      <path id="Arial-BoldMT-70" d="M 434 3319 
L 1253 3319 
L 1253 2831 
Q 1413 3081 1684 3237 
Q 1956 3394 2288 3394 
Q 2866 3394 3269 2941 
Q 3672 2488 3672 1678 
Q 3672 847 3265 386 
Q 2859 -75 2281 -75 
Q 2006 -75 1782 34 
Q 1559 144 1313 409 
L 1313 -1263 
L 434 -1263 
L 434 3319 
z
M 1303 1716 
Q 1303 1156 1525 889 
Q 1747 622 2066 622 
Q 2372 622 2575 867 
Q 2778 1113 2778 1672 
Q 2778 2194 2568 2447 
Q 2359 2700 2050 2700 
Q 1728 2700 1515 2451 
Q 1303 2203 1303 1716 
z
" transform="scale(0.015625)"/>
      <path id="Arial-BoldMT-65" d="M 2381 1056 
L 3256 909 
Q 3088 428 2723 176 
Q 2359 -75 1813 -75 
Q 947 -75 531 491 
Q 203 944 203 1634 
Q 203 2459 634 2926 
Q 1066 3394 1725 3394 
Q 2466 3394 2894 2905 
Q 3322 2416 3303 1406 
L 1103 1406 
Q 1113 1016 1316 798 
Q 1519 581 1822 581 
Q 2028 581 2168 693 
Q 2309 806 2381 1056 
z
M 2431 1944 
Q 2422 2325 2234 2523 
Q 2047 2722 1778 2722 
Q 1491 2722 1303 2513 
Q 1116 2303 1119 1944 
L 2431 1944 
z
" transform="scale(0.015625)"/>
      <path id="Arial-BoldMT-6e" d="M 3478 0 
L 2600 0 
L 2600 1694 
Q 2600 2231 2544 2389 
Q 2488 2547 2361 2634 
Q 2234 2722 2056 2722 
Q 1828 2722 1647 2597 
Q 1466 2472 1398 2265 
Q 1331 2059 1331 1503 
L 1331 0 
L 453 0 
L 453 3319 
L 1269 3319 
L 1269 2831 
Q 1703 3394 2363 3394 
Q 2653 3394 2893 3289 
Q 3134 3184 3257 3021 
Q 3381 2859 3429 2653 
Q 3478 2447 3478 2063 
L 3478 0 
z
" transform="scale(0.015625)"/>
      <path id="Arial-BoldMT-74" d="M 1981 3319 
L 1981 2619 
L 1381 2619 
L 1381 1281 
Q 1381 875 1398 808 
Q 1416 741 1477 697 
Q 1538 653 1625 653 
Q 1747 653 1978 738 
L 2053 56 
Q 1747 -75 1359 -75 
Q 1122 -75 931 4 
Q 741 84 652 211 
Q 563 338 528 553 
Q 500 706 500 1172 
L 500 2619 
L 97 2619 
L 97 3319 
L 500 3319 
L 500 3978 
L 1381 4491 
L 1381 3319 
L 1981 3319 
z
" transform="scale(0.015625)"/>
      <path id="Arial-BoldMT-6f" d="M 256 1706 
Q 256 2144 472 2553 
Q 688 2963 1083 3178 
Q 1478 3394 1966 3394 
Q 2719 3394 3200 2905 
Q 3681 2416 3681 1669 
Q 3681 916 3195 420 
Q 2709 -75 1972 -75 
Q 1516 -75 1102 131 
Q 688 338 472 736 
Q 256 1134 256 1706 
z
M 1156 1659 
Q 1156 1166 1390 903 
Q 1625 641 1969 641 
Q 2313 641 2545 903 
Q 2778 1166 2778 1666 
Q 2778 2153 2545 2415 
Q 2313 2678 1969 2678 
Q 1625 2678 1390 2415 
Q 1156 2153 1156 1659 
z
" transform="scale(0.015625)"/>
      <path id="Arial-BoldMT-50" d="M 466 0 
L 466 4581 
L 1950 4581 
Q 2794 4581 3050 4513 
Q 3444 4409 3709 4064 
Q 3975 3719 3975 3172 
Q 3975 2750 3822 2462 
Q 3669 2175 3433 2011 
Q 3197 1847 2953 1794 
Q 2622 1728 1994 1728 
L 1391 1728 
L 1391 0 
L 466 0 
z
M 1391 3806 
L 1391 2506 
L 1897 2506 
Q 2444 2506 2628 2578 
Q 2813 2650 2917 2803 
Q 3022 2956 3022 3159 
Q 3022 3409 2875 3571 
Q 2728 3734 2503 3775 
Q 2338 3806 1838 3806 
L 1391 3806 
z
" transform="scale(0.015625)"/>
      <path id="Arial-BoldMT-72" d="M 1300 0 
L 422 0 
L 422 3319 
L 1238 3319 
L 1238 2847 
Q 1447 3181 1614 3287 
Q 1781 3394 1994 3394 
Q 2294 3394 2572 3228 
L 2300 2463 
Q 2078 2606 1888 2606 
Q 1703 2606 1575 2504 
Q 1447 2403 1373 2137 
Q 1300 1872 1300 1025 
L 1300 0 
z
" transform="scale(0.015625)"/>
      <path id="Arial-BoldMT-67" d="M 378 -219 
L 1381 -341 
Q 1406 -516 1497 -581 
Q 1622 -675 1891 -675 
Q 2234 -675 2406 -572 
Q 2522 -503 2581 -350 
Q 2622 -241 2622 53 
L 2622 538 
Q 2228 0 1628 0 
Q 959 0 569 566 
Q 263 1013 263 1678 
Q 263 2513 664 2953 
Q 1066 3394 1663 3394 
Q 2278 3394 2678 2853 
L 2678 3319 
L 3500 3319 
L 3500 341 
Q 3500 -247 3403 -537 
Q 3306 -828 3131 -993 
Q 2956 -1159 2664 -1253 
Q 2372 -1347 1925 -1347 
Q 1081 -1347 728 -1058 
Q 375 -769 375 -325 
Q 375 -281 378 -219 
z
M 1163 1728 
Q 1163 1200 1367 954 
Q 1572 709 1872 709 
Q 2194 709 2416 961 
Q 2638 1213 2638 1706 
Q 2638 2222 2425 2472 
Q 2213 2722 1888 2722 
Q 1572 2722 1367 2476 
Q 1163 2231 1163 1728 
z
" transform="scale(0.015625)"/>
      <path id="Arial-BoldMT-73" d="M 150 947 
L 1031 1081 
Q 1088 825 1259 692 
Q 1431 559 1741 559 
Q 2081 559 2253 684 
Q 2369 772 2369 919 
Q 2369 1019 2306 1084 
Q 2241 1147 2013 1200 
Q 950 1434 666 1628 
Q 272 1897 272 2375 
Q 272 2806 612 3100 
Q 953 3394 1669 3394 
Q 2350 3394 2681 3172 
Q 3013 2950 3138 2516 
L 2309 2363 
Q 2256 2556 2107 2659 
Q 1959 2763 1684 2763 
Q 1338 2763 1188 2666 
Q 1088 2597 1088 2488 
Q 1088 2394 1175 2328 
Q 1294 2241 1995 2081 
Q 2697 1922 2975 1691 
Q 3250 1456 3250 1038 
Q 3250 581 2869 253 
Q 2488 -75 1741 -75 
Q 1063 -75 667 200 
Q 272 475 150 947 
z
" transform="scale(0.015625)"/>
      <path id="Arial-BoldMT-52" d="M 469 0 
L 469 4581 
L 2416 4581 
Q 3150 4581 3483 4457 
Q 3816 4334 4016 4018 
Q 4216 3703 4216 3297 
Q 4216 2781 3912 2445 
Q 3609 2109 3006 2022 
Q 3306 1847 3501 1637 
Q 3697 1428 4028 894 
L 4588 0 
L 3481 0 
L 2813 997 
Q 2456 1531 2325 1670 
Q 2194 1809 2047 1861 
Q 1900 1913 1581 1913 
L 1394 1913 
L 1394 0 
L 469 0 
z
M 1394 2644 
L 2078 2644 
Q 2744 2644 2909 2700 
Q 3075 2756 3169 2893 
Q 3263 3031 3263 3238 
Q 3263 3469 3139 3611 
Q 3016 3753 2791 3791 
Q 2678 3806 2116 3806 
L 1394 3806 
L 1394 2644 
z
" transform="scale(0.015625)"/>
      <path id="Arial-BoldMT-3a" d="M 628 2441 
L 628 3319 
L 1506 3319 
L 1506 2441 
L 628 2441 
z
M 628 0 
L 628 878 
L 1506 878 
L 1506 0 
L 628 0 
z
" transform="scale(0.015625)"/>
      <path id="Arial-BoldMT-41" d="M 4597 0 
L 3591 0 
L 3191 1041 
L 1359 1041 
L 981 0 
L 0 0 
L 1784 4581 
L 2763 4581 
L 4597 0 
z
M 2894 1813 
L 2263 3513 
L 1644 1813 
L 2894 1813 
z
" transform="scale(0.015625)"/>
      <path id="Arial-BoldMT-4c" d="M 491 0 
L 491 4544 
L 1416 4544 
L 1416 772 
L 3716 772 
L 3716 0 
L 491 0 
z
" transform="scale(0.015625)"/>
      <path id="Arial-BoldMT-55" d="M 459 4581 
L 1384 4581 
L 1384 2100 
Q 1384 1509 1419 1334 
Q 1478 1053 1701 883 
Q 1925 713 2313 713 
Q 2706 713 2906 873 
Q 3106 1034 3147 1268 
Q 3188 1503 3188 2047 
L 3188 4581 
L 4113 4581 
L 4113 2175 
Q 4113 1350 4038 1009 
Q 3963 669 3761 434 
Q 3559 200 3221 61 
Q 2884 -78 2341 -78 
Q 1684 -78 1345 73 
Q 1006 225 809 467 
Q 613 709 550 975 
Q 459 1369 459 2138 
L 459 4581 
z
" transform="scale(0.015625)"/>
      <path id="Arial-BoldMT-4f" d="M 278 2263 
Q 278 2963 488 3438 
Q 644 3788 914 4066 
Q 1184 4344 1506 4478 
Q 1934 4659 2494 4659 
Q 3506 4659 4114 4031 
Q 4722 3403 4722 2284 
Q 4722 1175 4119 548 
Q 3516 -78 2506 -78 
Q 1484 -78 881 545 
Q 278 1169 278 2263 
z
M 1231 2294 
Q 1231 1516 1590 1114 
Q 1950 713 2503 713 
Q 3056 713 3411 1111 
Q 3766 1509 3766 2306 
Q 3766 3094 3420 3481 
Q 3075 3869 2503 3869 
Q 1931 3869 1581 3476 
Q 1231 3084 1231 2294 
z
" transform="scale(0.015625)"/>
      <path id="Arial-BoldMT-4a" d="M 2119 4581 
L 3041 4581 
L 3041 1681 
Q 3041 1113 2941 806 
Q 2806 406 2453 164 
Q 2100 -78 1522 -78 
Q 844 -78 478 301 
Q 113 681 109 1416 
L 981 1516 
Q 997 1122 1097 959 
Q 1247 713 1553 713 
Q 1863 713 1991 889 
Q 2119 1066 2119 1622 
L 2119 4581 
z
" transform="scale(0.015625)"/>
      <path id="Arial-BoldMT-45" d="M 466 0 
L 466 4581 
L 3863 4581 
L 3863 3806 
L 1391 3806 
L 1391 2791 
L 3691 2791 
L 3691 2019 
L 1391 2019 
L 1391 772 
L 3950 772 
L 3950 0 
L 466 0 
z
" transform="scale(0.015625)"/>
      <path id="Arial-BoldMT-43" d="M 3397 1684 
L 4294 1400 
Q 4088 650 3608 286 
Q 3128 -78 2391 -78 
Q 1478 -78 890 545 
Q 303 1169 303 2250 
Q 303 3394 893 4026 
Q 1484 4659 2447 4659 
Q 3288 4659 3813 4163 
Q 4125 3869 4281 3319 
L 3366 3100 
Q 3284 3456 3026 3662 
Q 2769 3869 2400 3869 
Q 1891 3869 1573 3503 
Q 1256 3138 1256 2319 
Q 1256 1450 1568 1081 
Q 1881 713 2381 713 
Q 2750 713 3015 947 
Q 3281 1181 3397 1684 
z
" transform="scale(0.015625)"/>
      <path id="Arial-BoldMT-54" d="M 1497 0 
L 1497 3806 
L 138 3806 
L 138 4581 
L 3778 4581 
L 3778 3806 
L 2422 3806 
L 2422 0 
L 1497 0 
z
" transform="scale(0.015625)"/>
      <path id="Arial-BoldMT-5f" d="M -59 -1266 
L -59 -697 
L 3591 -697 
L 3591 -1266 
L -59 -1266 
z
" transform="scale(0.015625)"/>
      <path id="Arial-BoldMT-48" d="M 469 0 
L 469 4581 
L 1394 4581 
L 1394 2778 
L 3206 2778 
L 3206 4581 
L 4131 4581 
L 4131 0 
L 3206 0 
L 3206 2003 
L 1394 2003 
L 1394 0 
L 469 0 
z
" transform="scale(0.015625)"/>
      <path id="Arial-BoldMT-57" d="M 1116 0 
L 22 4581 
L 969 4581 
L 1659 1434 
L 2497 4581 
L 3597 4581 
L 4400 1381 
L 5103 4581 
L 6034 4581 
L 4922 0 
L 3941 0 
L 3028 3425 
L 2119 0 
L 1116 0 
z
" transform="scale(0.015625)"/>
      <path id="Arial-BoldMT-59" d="M 1669 0 
L 1669 1928 
L -9 4581 
L 1075 4581 
L 2153 2769 
L 3209 4581 
L 4275 4581 
L 2591 1922 
L 2591 0 
L 1669 0 
z
" transform="scale(0.015625)"/>
      <path id="Arial-BoldMT-28" d="M 1916 -1347 
L 1313 -1347 
Q 834 -625 584 153 
Q 334 931 334 1659 
Q 334 2563 644 3369 
Q 913 4069 1325 4659 
L 1925 4659 
Q 1497 3713 1336 3048 
Q 1175 2384 1175 1641 
Q 1175 1128 1270 590 
Q 1366 53 1531 -431 
Q 1641 -750 1916 -1347 
z
" transform="scale(0.015625)"/>
      <path id="Arial-BoldMT-32" d="M 3238 816 
L 3238 0 
L 159 0 
Q 209 463 459 877 
Q 709 1291 1447 1975 
Q 2041 2528 2175 2725 
Q 2356 2997 2356 3263 
Q 2356 3556 2198 3714 
Q 2041 3872 1763 3872 
Q 1488 3872 1325 3706 
Q 1163 3541 1138 3156 
L 263 3244 
Q 341 3969 753 4284 
Q 1166 4600 1784 4600 
Q 2463 4600 2850 4234 
Q 3238 3869 3238 3325 
Q 3238 3016 3127 2736 
Q 3016 2456 2775 2150 
Q 2616 1947 2200 1565 
Q 1784 1184 1673 1059 
Q 1563 934 1494 816 
L 3238 816 
z
" transform="scale(0.015625)"/>
      <path id="Arial-BoldMT-30" d="M 1756 4600 
Q 2422 4600 2797 4125 
Q 3244 3563 3244 2259 
Q 3244 959 2794 391 
Q 2422 -78 1756 -78 
Q 1088 -78 678 436 
Q 269 950 269 2269 
Q 269 3563 719 4131 
Q 1091 4600 1756 4600 
z
M 1756 3872 
Q 1597 3872 1472 3770 
Q 1347 3669 1278 3406 
Q 1188 3066 1188 2259 
Q 1188 1453 1269 1151 
Q 1350 850 1473 750 
Q 1597 650 1756 650 
Q 1916 650 2041 751 
Q 2166 853 2234 1116 
Q 2325 1453 2325 2259 
Q 2325 3066 2244 3367 
Q 2163 3669 2039 3770 
Q 1916 3872 1756 3872 
z
" transform="scale(0.015625)"/>
      <path id="Arial-BoldMT-29" d="M 216 -1347 
Q 475 -791 581 -494 
Q 688 -197 778 190 
Q 869 578 912 926 
Q 956 1275 956 1641 
Q 956 2384 797 3048 
Q 638 3713 209 4659 
L 806 4659 
Q 1278 3988 1539 3234 
Q 1800 2481 1800 1706 
Q 1800 1053 1594 306 
Q 1359 -531 822 -1347 
L 216 -1347 
z
" transform="scale(0.015625)"/>
     </defs>
     <use xlink:href="#Arial-BoldMT-44"/>
     <use xlink:href="#Arial-BoldMT-61" x="72.216797"/>
     <use xlink:href="#Arial-BoldMT-69" x="127.832031"/>
     <use xlink:href="#Arial-BoldMT-6c" x="155.615234"/>
     <use xlink:href="#Arial-BoldMT-79" x="183.398438"/>
     <use xlink:href="#Arial-BoldMT-20" x="239.013672"/>
     <use xlink:href="#Arial-BoldMT-49" x="266.796875"/>
     <use xlink:href="#Arial-BoldMT-6d" x="294.580078"/>
     <use xlink:href="#Arial-BoldMT-70" x="383.496094"/>
     <use xlink:href="#Arial-BoldMT-6c" x="444.580078"/>
     <use xlink:href="#Arial-BoldMT-65" x="472.363281"/>
     <use xlink:href="#Arial-BoldMT-6d" x="527.978516"/>
     <use xlink:href="#Arial-BoldMT-65" x="616.894531"/>
     <use xlink:href="#Arial-BoldMT-6e" x="672.509766"/>
     <use xlink:href="#Arial-BoldMT-74" x="733.59375"/>
     <use xlink:href="#Arial-BoldMT-61" x="766.894531"/>
     <use xlink:href="#Arial-BoldMT-74" x="822.509766"/>
     <use xlink:href="#Arial-BoldMT-69" x="855.810547"/>
     <use xlink:href="#Arial-BoldMT-6f" x="883.59375"/>
     <use xlink:href="#Arial-BoldMT-6e" x="944.677734"/>
     <use xlink:href="#Arial-BoldMT-20" x="1005.761719"/>
     <use xlink:href="#Arial-BoldMT-50" x="1033.544922"/>
     <use xlink:href="#Arial-BoldMT-72" x="1100.244141"/>
     <use xlink:href="#Arial-BoldMT-6f" x="1139.160156"/>
     <use xlink:href="#Arial-BoldMT-67" x="1200.244141"/>
     <use xlink:href="#Arial-BoldMT-72" x="1261.328125"/>
     <use xlink:href="#Arial-BoldMT-65" x="1300.244141"/>
     <use xlink:href="#Arial-BoldMT-73" x="1355.859375"/>
     <use xlink:href="#Arial-BoldMT-73" x="1411.474609"/>
     <use xlink:href="#Arial-BoldMT-20" x="1467.089844"/>
     <use xlink:href="#Arial-BoldMT-52" x="1494.873047"/>
     <use xlink:href="#Arial-BoldMT-65" x="1567.089844"/>
     <use xlink:href="#Arial-BoldMT-70" x="1622.705078"/>
     <use xlink:href="#Arial-BoldMT-6f" x="1683.789062"/>
     <use xlink:href="#Arial-BoldMT-72" x="1744.873047"/>
     <use xlink:href="#Arial-BoldMT-74" x="1783.789062"/>
     <use xlink:href="#Arial-BoldMT-3a" x="1817.089844"/>
     <use xlink:href="#Arial-BoldMT-20" x="1850.390625"/>
     <use xlink:href="#Arial-BoldMT-41" x="1874.423828"/>
     <use xlink:href="#Arial-BoldMT-4c" x="1946.640625"/>
     <use xlink:href="#Arial-BoldMT-55" x="2007.724609"/>
     <use xlink:href="#Arial-BoldMT-20" x="2079.941406"/>
     <use xlink:href="#Arial-BoldMT-50" x="2107.724609"/>
     <use xlink:href="#Arial-BoldMT-52" x="2174.423828"/>
     <use xlink:href="#Arial-BoldMT-4f" x="2246.640625"/>
     <use xlink:href="#Arial-BoldMT-4a" x="2324.423828"/>
     <use xlink:href="#Arial-BoldMT-45" x="2380.039062"/>
     <use xlink:href="#Arial-BoldMT-43" x="2446.738281"/>
     <use xlink:href="#Arial-BoldMT-54" x="2518.955078"/>
     <use xlink:href="#Arial-BoldMT-5f" x="2580.039062"/>
     <use xlink:href="#Arial-BoldMT-48" x="2635.654297"/>
     <use xlink:href="#Arial-BoldMT-55" x="2707.871094"/>
     <use xlink:href="#Arial-BoldMT-41" x="2780.087891"/>
     <use xlink:href="#Arial-BoldMT-57" x="2846.804688"/>
     <use xlink:href="#Arial-BoldMT-45" x="2941.189453"/>
     <use xlink:href="#Arial-BoldMT-49" x="3007.888672"/>
     <use xlink:href="#Arial-BoldMT-5f" x="3035.671875"/>
     <use xlink:href="#Arial-BoldMT-52" x="3091.287109"/>
     <use xlink:href="#Arial-BoldMT-45" x="3163.503906"/>
     <use xlink:href="#Arial-BoldMT-44" x="3230.203125"/>
     <use xlink:href="#Arial-BoldMT-45" x="3302.419922"/>
     <use xlink:href="#Arial-BoldMT-50" x="3369.119141"/>
     <use xlink:href="#Arial-BoldMT-4c" x="3435.818359"/>
     <use xlink:href="#Arial-BoldMT-4f" x="3496.902344"/>
     <use xlink:href="#Arial-BoldMT-59" x="3574.685547"/>
     <use xlink:href="#Arial-BoldMT-28" x="3641.384766"/>
     <use xlink:href="#Arial-BoldMT-32" x="3674.685547"/>
     <use xlink:href="#Arial-BoldMT-30" x="3730.300781"/>
     <use xlink:href="#Arial-BoldMT-29" x="3785.916016"/>
    </g>
   </g>
   <g id="text_15">
    <g id="patch_6">
     <path d="M 85.452124 451.33555 
L 90.456967 451.33555 
Q 92.256967 451.33555 92.256967 449.53555 
L 92.256967 441.317425 
Q 92.256967 439.517425 90.456967 439.517425 
L 85.452124 439.517425 
Q 83.652124 439.517425 83.652124 441.317425 
L 83.652124 449.53555 
Q 83.652124 451.33555 85.452124 451.33555 
z
" style="fill: #ffffff; opacity: 0.7; stroke: #0a62a9; stroke-linejoin: miter"/>
    </g>
    <!-- 3 -->
    <g style="fill: #0a62a9" transform="translate(85.452124 447.759457) scale(0.09 -0.09)">
     <defs>
      <path id="Arial-BoldMT-33" d="M 241 1216 
L 1091 1319 
Q 1131 994 1309 822 
Q 1488 650 1741 650 
Q 2013 650 2198 856 
Q 2384 1063 2384 1413 
Q 2384 1744 2206 1937 
Q 2028 2131 1772 2131 
Q 1603 2131 1369 2066 
L 1466 2781 
Q 1822 2772 2009 2936 
Q 2197 3100 2197 3372 
Q 2197 3603 2059 3740 
Q 1922 3878 1694 3878 
Q 1469 3878 1309 3722 
Q 1150 3566 1116 3266 
L 306 3403 
Q 391 3819 561 4067 
Q 731 4316 1036 4458 
Q 1341 4600 1719 4600 
Q 2366 4600 2756 4188 
Q 3078 3850 3078 3425 
Q 3078 2822 2419 2463 
Q 2813 2378 3048 2084 
Q 3284 1791 3284 1375 
Q 3284 772 2843 347 
Q 2403 -78 1747 -78 
Q 1125 -78 715 280 
Q 306 638 241 1216 
z
" transform="scale(0.015625)"/>
     </defs>
     <use xlink:href="#Arial-BoldMT-33"/>
    </g>
   </g>
   <g id="text_16">
    <g id="patch_7">
     <path d="M 131.31273 501.33555 
L 136.317573 501.33555 
Q 138.117573 501.33555 138.117573 499.53555 
L 138.117573 491.317425 
Q 138.117573 489.517425 136.317573 489.517425 
L 131.31273 489.517425 
Q 129.51273 489.517425 129.51273 491.317425 
L 129.51273 499.53555 
Q 129.51273 501.33555 131.31273 501.33555 
z
" style="fill: #ffffff; opacity: 0.7; stroke: #0a62a9; stroke-linejoin: miter"/>
    </g>
    <!-- 3 -->
    <g style="fill: #0a62a9" transform="translate(131.31273 497.759457) scale(0.09 -0.09)">
     <use xlink:href="#Arial-BoldMT-33"/>
    </g>
   </g>
   <g id="text_17">
    <g id="patch_8">
     <path d="M 177.173336 431.33555 
L 182.178179 431.33555 
Q 183.978179 431.33555 183.978179 429.53555 
L 183.978179 421.317425 
Q 183.978179 419.517425 182.178179 419.517425 
L 177.173336 419.517425 
Q 175.373336 419.517425 175.373336 421.317425 
L 175.373336 429.53555 
Q 175.373336 431.33555 177.173336 431.33555 
z
" style="fill: #ffffff; opacity: 0.7; stroke: #0a62a9; stroke-linejoin: miter"/>
    </g>
    <!-- 3 -->
    <g style="fill: #0a62a9" transform="translate(177.173336 427.759457) scale(0.09 -0.09)">
     <use xlink:href="#Arial-BoldMT-33"/>
    </g>
   </g>
   <g id="text_18">
    <g id="patch_9">
     <path d="M 223.033942 422.748757 
L 228.038786 422.748757 
Q 229.838786 422.748757 229.838786 420.948757 
L 229.838786 412.730632 
Q 229.838786 410.930632 228.038786 410.930632 
L 223.033942 410.930632 
Q 221.233942 410.930632 221.233942 412.730632 
L 221.233942 420.948757 
Q 221.233942 422.748757 223.033942 422.748757 
z
" style="fill: #ffffff; opacity: 0.7; stroke: #0a62a9; stroke-linejoin: miter"/>
    </g>
    <!-- 6 -->
    <g style="fill: #0a62a9" transform="translate(223.033942 419.172663) scale(0.09 -0.09)">
     <defs>
      <path id="Arial-BoldMT-36" d="M 3247 3459 
L 2397 3366 
Q 2366 3628 2234 3753 
Q 2103 3878 1894 3878 
Q 1616 3878 1423 3628 
Q 1231 3378 1181 2588 
Q 1509 2975 1997 2975 
Q 2547 2975 2939 2556 
Q 3331 2138 3331 1475 
Q 3331 772 2918 347 
Q 2506 -78 1859 -78 
Q 1166 -78 719 461 
Q 272 1000 272 2228 
Q 272 3488 737 4044 
Q 1203 4600 1947 4600 
Q 2469 4600 2811 4308 
Q 3153 4016 3247 3459 
z
M 1256 1544 
Q 1256 1116 1453 883 
Q 1650 650 1903 650 
Q 2147 650 2309 840 
Q 2472 1031 2472 1466 
Q 2472 1913 2297 2120 
Q 2122 2328 1859 2328 
Q 1606 2328 1431 2129 
Q 1256 1931 1256 1544 
z
" transform="scale(0.015625)"/>
     </defs>
     <use xlink:href="#Arial-BoldMT-36"/>
    </g>
   </g>
   <g id="text_19">
    <g id="patch_10">
     <path d="M 268.894548 367.748757 
L 273.899392 367.748757 
Q 275.699392 367.748757 275.699392 365.948757 
L 275.699392 357.730632 
Q 275.699392 355.930632 273.899392 355.930632 
L 268.894548 355.930632 
Q 267.094548 355.930632 267.094548 357.730632 
L 267.094548 365.948757 
Q 267.094548 367.748757 268.894548 367.748757 
z
" style="fill: #ffffff; opacity: 0.7; stroke: #0a62a9; stroke-linejoin: miter"/>
    </g>
    <!-- 6 -->
    <g style="fill: #0a62a9" transform="translate(268.894548 364.172663) scale(0.09 -0.09)">
     <use xlink:href="#Arial-BoldMT-36"/>
    </g>
   </g>
   <g id="text_20">
    <g id="patch_11">
     <path d="M 314.755154 437.748757 
L 319.759998 437.748757 
Q 321.559998 437.748757 321.559998 435.948757 
L 321.559998 427.730632 
Q 321.559998 425.930632 319.759998 425.930632 
L 314.755154 425.930632 
Q 312.955154 425.930632 312.955154 427.730632 
L 312.955154 435.948757 
Q 312.955154 437.748757 314.755154 437.748757 
z
" style="fill: #ffffff; opacity: 0.7; stroke: #0a62a9; stroke-linejoin: miter"/>
    </g>
    <!-- 6 -->
    <g style="fill: #0a62a9" transform="translate(314.755154 434.172663) scale(0.09 -0.09)">
     <use xlink:href="#Arial-BoldMT-36"/>
    </g>
   </g>
   <g id="text_21">
    <g id="patch_12">
     <path d="M 360.61576 319.161963 
L 365.620604 319.161963 
Q 367.420604 319.161963 367.420604 317.361963 
L 367.420604 309.143838 
Q 367.420604 307.343838 365.620604 307.343838 
L 360.61576 307.343838 
Q 358.81576 307.343838 358.81576 309.143838 
L 358.81576 317.361963 
Q 358.81576 319.161963 360.61576 319.161963 
z
" style="fill: #ffffff; opacity: 0.7; stroke: #0a62a9; stroke-linejoin: miter"/>
    </g>
    <!-- 9 -->
    <g style="fill: #0a62a9" transform="translate(360.61576 315.58587) scale(0.09 -0.09)">
     <defs>
      <path id="Arial-BoldMT-39" d="M 291 1059 
L 1141 1153 
Q 1172 894 1303 769 
Q 1434 644 1650 644 
Q 1922 644 2112 894 
Q 2303 1144 2356 1931 
Q 2025 1547 1528 1547 
Q 988 1547 595 1964 
Q 203 2381 203 3050 
Q 203 3747 617 4173 
Q 1031 4600 1672 4600 
Q 2369 4600 2816 4061 
Q 3263 3522 3263 2288 
Q 3263 1031 2797 475 
Q 2331 -81 1584 -81 
Q 1047 -81 715 205 
Q 384 491 291 1059 
z
M 2278 2978 
Q 2278 3403 2083 3637 
Q 1888 3872 1631 3872 
Q 1388 3872 1227 3680 
Q 1066 3488 1066 3050 
Q 1066 2606 1241 2398 
Q 1416 2191 1678 2191 
Q 1931 2191 2104 2391 
Q 2278 2591 2278 2978 
z
" transform="scale(0.015625)"/>
     </defs>
     <use xlink:href="#Arial-BoldMT-39"/>
    </g>
   </g>
   <g id="text_22">
    <g id="patch_13">
     <path d="M 406.476366 374.161963 
L 411.48121 374.161963 
Q 413.28121 374.161963 413.28121 372.361963 
L 413.28121 364.143838 
Q 413.28121 362.343838 411.48121 362.343838 
L 406.476366 362.343838 
Q 404.676366 362.343838 404.676366 364.143838 
L 404.676366 372.361963 
Q 404.676366 374.161963 406.476366 374.161963 
z
" style="fill: #ffffff; opacity: 0.7; stroke: #0a62a9; stroke-linejoin: miter"/>
    </g>
    <!-- 9 -->
    <g style="fill: #0a62a9" transform="translate(406.476366 370.58587) scale(0.09 -0.09)">
     <use xlink:href="#Arial-BoldMT-39"/>
    </g>
   </g>
   <g id="text_23">
    <g id="patch_14">
     <path d="M 452.336972 304.161963 
L 457.341816 304.161963 
Q 459.141816 304.161963 459.141816 302.361963 
L 459.141816 294.143838 
Q 459.141816 292.343838 457.341816 292.343838 
L 452.336972 292.343838 
Q 450.536972 292.343838 450.536972 294.143838 
L 450.536972 302.361963 
Q 450.536972 304.161963 452.336972 304.161963 
z
" style="fill: #ffffff; opacity: 0.7; stroke: #0a62a9; stroke-linejoin: miter"/>
    </g>
    <!-- 9 -->
    <g style="fill: #0a62a9" transform="translate(452.336972 300.58587) scale(0.09 -0.09)">
     <use xlink:href="#Arial-BoldMT-39"/>
    </g>
   </g>
   <g id="text_24">
    <g id="patch_15">
     <path d="M 495.695156 295.57517 
L 505.704844 295.57517 
Q 507.504844 295.57517 507.504844 293.77517 
L 507.504844 285.557045 
Q 507.504844 283.757045 505.704844 283.757045 
L 495.695156 283.757045 
Q 493.895156 283.757045 493.895156 285.557045 
L 493.895156 293.77517 
Q 493.895156 295.57517 495.695156 295.57517 
z
" style="fill: #ffffff; opacity: 0.7; stroke: #0a62a9; stroke-linejoin: miter"/>
    </g>
    <!-- 12 -->
    <g style="fill: #0a62a9" transform="translate(495.695156 291.999076) scale(0.09 -0.09)">
     <defs>
      <path id="Arial-BoldMT-31" d="M 2519 0 
L 1641 0 
L 1641 3309 
Q 1159 2859 506 2644 
L 506 3441 
Q 850 3553 1253 3867 
Q 1656 4181 1806 4600 
L 2519 4600 
L 2519 0 
z
" transform="scale(0.015625)"/>
     </defs>
     <use xlink:href="#Arial-BoldMT-31"/>
     <use xlink:href="#Arial-BoldMT-32" x="55.615234"/>
    </g>
   </g>
   <g id="text_25">
    <g id="patch_16">
     <path d="M 541.555762 240.57517 
L 551.56545 240.57517 
Q 553.36545 240.57517 553.36545 238.77517 
L 553.36545 230.557045 
Q 553.36545 228.757045 551.56545 228.757045 
L 541.555762 228.757045 
Q 539.755762 228.757045 539.755762 230.557045 
L 539.755762 238.77517 
Q 539.755762 240.57517 541.555762 240.57517 
z
" style="fill: #ffffff; opacity: 0.7; stroke: #0a62a9; stroke-linejoin: miter"/>
    </g>
    <!-- 12 -->
    <g style="fill: #0a62a9" transform="translate(541.555762 236.999076) scale(0.09 -0.09)">
     <use xlink:href="#Arial-BoldMT-31"/>
     <use xlink:href="#Arial-BoldMT-32" x="55.615234"/>
    </g>
   </g>
   <g id="text_26">
    <g id="patch_17">
     <path d="M 587.416368 310.57517 
L 597.426056 310.57517 
Q 599.226056 310.57517 599.226056 308.77517 
L 599.226056 300.557045 
Q 599.226056 298.757045 597.426056 298.757045 
L 587.416368 298.757045 
Q 585.616368 298.757045 585.616368 300.557045 
L 585.616368 308.77517 
Q 585.616368 310.57517 587.416368 310.57517 
z
" style="fill: #ffffff; opacity: 0.7; stroke: #0a62a9; stroke-linejoin: miter"/>
    </g>
    <!-- 12 -->
    <g style="fill: #0a62a9" transform="translate(587.416368 306.999076) scale(0.09 -0.09)">
     <use xlink:href="#Arial-BoldMT-31"/>
     <use xlink:href="#Arial-BoldMT-32" x="55.615234"/>
    </g>
   </g>
   <g id="text_27">
    <g id="patch_18">
     <path d="M 633.276974 191.988376 
L 643.286662 191.988376 
Q 645.086662 191.988376 645.086662 190.188376 
L 645.086662 181.970251 
Q 645.086662 180.170251 643.286662 180.170251 
L 633.276974 180.170251 
Q 631.476974 180.170251 631.476974 181.970251 
L 631.476974 190.188376 
Q 631.476974 191.988376 633.276974 191.988376 
z
" style="fill: #ffffff; opacity: 0.7; stroke: #0a62a9; stroke-linejoin: miter"/>
    </g>
    <!-- 15 -->
    <g style="fill: #0a62a9" transform="translate(633.276974 188.412283) scale(0.09 -0.09)">
     <defs>
      <path id="Arial-BoldMT-35" d="M 284 1178 
L 1159 1269 
Q 1197 972 1381 798 
Q 1566 625 1806 625 
Q 2081 625 2272 848 
Q 2463 1072 2463 1522 
Q 2463 1944 2273 2155 
Q 2084 2366 1781 2366 
Q 1403 2366 1103 2031 
L 391 2134 
L 841 4519 
L 3163 4519 
L 3163 3697 
L 1506 3697 
L 1369 2919 
Q 1663 3066 1969 3066 
Q 2553 3066 2959 2641 
Q 3366 2216 3366 1538 
Q 3366 972 3038 528 
Q 2591 -78 1797 -78 
Q 1163 -78 763 262 
Q 363 603 284 1178 
z
" transform="scale(0.015625)"/>
     </defs>
     <use xlink:href="#Arial-BoldMT-31"/>
     <use xlink:href="#Arial-BoldMT-35" x="55.615234"/>
    </g>
   </g>
   <g id="text_28">
    <g id="patch_19">
     <path d="M 679.13758 246.988376 
L 689.147268 246.988376 
Q 690.947268 246.988376 690.947268 245.188376 
L 690.947268 236.970251 
Q 690.947268 235.170251 689.147268 235.170251 
L 679.13758 235.170251 
Q 677.33758 235.170251 677.33758 236.970251 
L 677.33758 245.188376 
Q 677.33758 246.988376 679.13758 246.988376 
z
" style="fill: #ffffff; opacity: 0.7; stroke: #0a62a9; stroke-linejoin: miter"/>
    </g>
    <!-- 15 -->
    <g style="fill: #0a62a9" transform="translate(679.13758 243.412283) scale(0.09 -0.09)">
     <use xlink:href="#Arial-BoldMT-31"/>
     <use xlink:href="#Arial-BoldMT-35" x="55.615234"/>
    </g>
   </g>
   <g id="text_29">
    <g id="patch_20">
     <path d="M 724.998187 176.988376 
L 735.007874 176.988376 
Q 736.807874 176.988376 736.807874 175.188376 
L 736.807874 166.970251 
Q 736.807874 165.170251 735.007874 165.170251 
L 724.998187 165.170251 
Q 723.198187 165.170251 723.198187 166.970251 
L 723.198187 175.188376 
Q 723.198187 176.988376 724.998187 176.988376 
z
" style="fill: #ffffff; opacity: 0.7; stroke: #0a62a9; stroke-linejoin: miter"/>
    </g>
    <!-- 15 -->
    <g style="fill: #0a62a9" transform="translate(724.998187 173.412283) scale(0.09 -0.09)">
     <use xlink:href="#Arial-BoldMT-31"/>
     <use xlink:href="#Arial-BoldMT-35" x="55.615234"/>
    </g>
   </g>
   <g id="text_30">
    <g id="patch_21">
     <path d="M 770.858793 168.401583 
L 780.86848 168.401583 
Q 782.66848 168.401583 782.66848 166.601583 
L 782.66848 158.383458 
Q 782.66848 156.583458 780.86848 156.583458 
L 770.858793 156.583458 
Q 769.058793 156.583458 769.058793 158.383458 
L 769.058793 166.601583 
Q 769.058793 168.401583 770.858793 168.401583 
z
" style="fill: #ffffff; opacity: 0.7; stroke: #0a62a9; stroke-linejoin: miter"/>
    </g>
    <!-- 18 -->
    <g style="fill: #0a62a9" transform="translate(770.858793 164.825489) scale(0.09 -0.09)">
     <defs>
      <path id="Arial-BoldMT-38" d="M 1025 2472 
Q 684 2616 529 2867 
Q 375 3119 375 3419 
Q 375 3931 733 4265 
Q 1091 4600 1750 4600 
Q 2403 4600 2764 4265 
Q 3125 3931 3125 3419 
Q 3125 3100 2959 2851 
Q 2794 2603 2494 2472 
Q 2875 2319 3073 2025 
Q 3272 1731 3272 1347 
Q 3272 713 2867 316 
Q 2463 -81 1791 -81 
Q 1166 -81 750 247 
Q 259 634 259 1309 
Q 259 1681 443 1992 
Q 628 2303 1025 2472 
z
M 1206 3356 
Q 1206 3094 1354 2947 
Q 1503 2800 1750 2800 
Q 2000 2800 2150 2948 
Q 2300 3097 2300 3359 
Q 2300 3606 2151 3754 
Q 2003 3903 1759 3903 
Q 1506 3903 1356 3753 
Q 1206 3603 1206 3356 
z
M 1125 1394 
Q 1125 1031 1311 828 
Q 1497 625 1775 625 
Q 2047 625 2225 820 
Q 2403 1016 2403 1384 
Q 2403 1706 2222 1901 
Q 2041 2097 1763 2097 
Q 1441 2097 1283 1875 
Q 1125 1653 1125 1394 
z
" transform="scale(0.015625)"/>
     </defs>
     <use xlink:href="#Arial-BoldMT-31"/>
     <use xlink:href="#Arial-BoldMT-38" x="55.615234"/>
    </g>
   </g>
   <g id="text_31">
    <g id="patch_22">
     <path d="M 816.719399 113.401583 
L 826.729086 113.401583 
Q 828.529086 113.401583 828.529086 111.601583 
L 828.529086 103.383458 
Q 828.529086 101.583458 826.729086 101.583458 
L 816.719399 101.583458 
Q 814.919399 101.583458 814.919399 103.383458 
L 814.919399 111.601583 
Q 814.919399 113.401583 816.719399 113.401583 
z
" style="fill: #ffffff; opacity: 0.7; stroke: #0a62a9; stroke-linejoin: miter"/>
    </g>
    <!-- 18 -->
    <g style="fill: #0a62a9" transform="translate(816.719399 109.825489) scale(0.09 -0.09)">
     <use xlink:href="#Arial-BoldMT-31"/>
     <use xlink:href="#Arial-BoldMT-38" x="55.615234"/>
    </g>
   </g>
   <g id="text_32">
    <g id="patch_23">
     <path d="M 862.580005 183.401583 
L 872.589692 183.401583 
Q 874.389692 183.401583 874.389692 181.601583 
L 874.389692 173.383458 
Q 874.389692 171.583458 872.589692 171.583458 
L 862.580005 171.583458 
Q 860.780005 171.583458 860.780005 173.383458 
L 860.780005 181.601583 
Q 860.780005 183.401583 862.580005 183.401583 
z
" style="fill: #ffffff; opacity: 0.7; stroke: #0a62a9; stroke-linejoin: miter"/>
    </g>
    <!-- 18 -->
    <g style="fill: #0a62a9" transform="translate(862.580005 179.825489) scale(0.09 -0.09)">
     <use xlink:href="#Arial-BoldMT-31"/>
     <use xlink:href="#Arial-BoldMT-38" x="55.615234"/>
    </g>
   </g>
   <g id="text_33">
    <g id="patch_24">
     <path d="M 908.440611 86.010387 
L 918.450298 86.010387 
Q 920.250298 86.010387 920.250298 84.210387 
L 920.250298 75.992262 
Q 920.250298 74.192262 918.450298 74.192262 
L 908.440611 74.192262 
Q 906.640611 74.192262 906.640611 75.992262 
L 906.640611 84.210387 
Q 906.640611 86.010387 908.440611 86.010387 
z
" style="fill: #ffffff; opacity: 0.7; stroke: #0a62a9; stroke-linejoin: miter"/>
    </g>
    <!-- 20 -->
    <g style="fill: #0a62a9" transform="translate(908.440611 82.434293) scale(0.09 -0.09)">
     <use xlink:href="#Arial-BoldMT-32"/>
     <use xlink:href="#Arial-BoldMT-30" x="55.615234"/>
    </g>
   </g>
   <g id="legend_1">
    <g id="patch_25">
     <path d="M 52.98 72.761562 
L 171.306094 72.761562 
Q 173.106094 72.761562 173.106094 70.961562 
L 173.106094 45.1475 
Q 173.106094 43.3475 171.306094 43.3475 
L 52.98 43.3475 
Q 51.18 43.3475 51.18 45.1475 
L 51.18 70.961562 
Q 51.18 72.761562 52.98 72.761562 
z
" style="fill: #ffffff; opacity: 0.9; stroke: #dddddd; stroke-width: 0.5; stroke-linejoin: miter"/>
    </g>
    <g id="text_34">
     <!-- Progress Indicators -->
     <g style="fill: #262626" transform="translate(65.185234 54.105312) scale(0.1 -0.1)">
      <defs>
       <path id="Arial-BoldMT-64" d="M 3503 0 
L 2688 0 
L 2688 488 
Q 2484 203 2207 64 
Q 1931 -75 1650 -75 
Q 1078 -75 670 386 
Q 263 847 263 1672 
Q 263 2516 659 2955 
Q 1056 3394 1663 3394 
Q 2219 3394 2625 2931 
L 2625 4581 
L 3503 4581 
L 3503 0 
z
M 1159 1731 
Q 1159 1200 1306 963 
Q 1519 619 1900 619 
Q 2203 619 2415 876 
Q 2628 1134 2628 1647 
Q 2628 2219 2422 2470 
Q 2216 2722 1894 2722 
Q 1581 2722 1370 2473 
Q 1159 2225 1159 1731 
z
" transform="scale(0.015625)"/>
       <path id="Arial-BoldMT-63" d="M 3353 2338 
L 2488 2181 
Q 2444 2441 2289 2572 
Q 2134 2703 1888 2703 
Q 1559 2703 1364 2476 
Q 1169 2250 1169 1719 
Q 1169 1128 1367 884 
Q 1566 641 1900 641 
Q 2150 641 2309 783 
Q 2469 925 2534 1272 
L 3397 1125 
Q 3263 531 2881 228 
Q 2500 -75 1859 -75 
Q 1131 -75 698 384 
Q 266 844 266 1656 
Q 266 2478 700 2936 
Q 1134 3394 1875 3394 
Q 2481 3394 2839 3133 
Q 3197 2872 3353 2338 
z
" transform="scale(0.015625)"/>
      </defs>
      <use xlink:href="#Arial-BoldMT-50"/>
      <use xlink:href="#Arial-BoldMT-72" x="66.699219"/>
      <use xlink:href="#Arial-BoldMT-6f" x="105.615234"/>
      <use xlink:href="#Arial-BoldMT-67" x="166.699219"/>
      <use xlink:href="#Arial-BoldMT-72" x="227.783203"/>
      <use xlink:href="#Arial-BoldMT-65" x="266.699219"/>
      <use xlink:href="#Arial-BoldMT-73" x="322.314453"/>
      <use xlink:href="#Arial-BoldMT-73" x="377.929688"/>
      <use xlink:href="#Arial-BoldMT-20" x="433.544922"/>
      <use xlink:href="#Arial-BoldMT-49" x="461.328125"/>
      <use xlink:href="#Arial-BoldMT-6e" x="489.111328"/>
      <use xlink:href="#Arial-BoldMT-64" x="550.195312"/>
      <use xlink:href="#Arial-BoldMT-69" x="611.279297"/>
      <use xlink:href="#Arial-BoldMT-63" x="639.0625"/>
      <use xlink:href="#Arial-BoldMT-61" x="694.677734"/>
      <use xlink:href="#Arial-BoldMT-74" x="750.292969"/>
      <use xlink:href="#Arial-BoldMT-6f" x="783.59375"/>
      <use xlink:href="#Arial-BoldMT-72" x="844.677734"/>
      <use xlink:href="#Arial-BoldMT-73" x="883.59375"/>
     </g>
    </g>
    <g id="line2d_19">
     <path d="M 54.78 64.117344 
L 63.78 64.117344 
L 72.78 64.117344 
" style="fill: none; stroke: #0a62a9; stroke-width: 2; stroke-linecap: round"/>
     <g>
      <use xlink:href="#m45d06901bf" x="63.78" y="64.117344" style="fill: #0a62a9; stroke: #0a62a9"/>
     </g>
    </g>
    <g id="text_35">
     <!-- Forecast OA (20 sites) -->
     <g style="fill: #262626" transform="translate(79.98 67.267344) scale(0.09 -0.09)">
      <defs>
       <path id="ArialMT-46" d="M 525 0 
L 525 4581 
L 3616 4581 
L 3616 4041 
L 1131 4041 
L 1131 2622 
L 3281 2622 
L 3281 2081 
L 1131 2081 
L 1131 0 
L 525 0 
z
" transform="scale(0.015625)"/>
       <path id="ArialMT-72" d="M 416 0 
L 416 3319 
L 922 3319 
L 922 2816 
Q 1116 3169 1280 3281 
Q 1444 3394 1641 3394 
Q 1925 3394 2219 3213 
L 2025 2691 
Q 1819 2813 1613 2813 
Q 1428 2813 1281 2702 
Q 1134 2591 1072 2394 
Q 978 2094 978 1738 
L 978 0 
L 416 0 
z
" transform="scale(0.015625)"/>
       <path id="ArialMT-63" d="M 2588 1216 
L 3141 1144 
Q 3050 572 2676 248 
Q 2303 -75 1759 -75 
Q 1078 -75 664 370 
Q 250 816 250 1647 
Q 250 2184 428 2587 
Q 606 2991 970 3192 
Q 1334 3394 1763 3394 
Q 2303 3394 2647 3120 
Q 2991 2847 3088 2344 
L 2541 2259 
Q 2463 2594 2264 2762 
Q 2066 2931 1784 2931 
Q 1359 2931 1093 2626 
Q 828 2322 828 1663 
Q 828 994 1084 691 
Q 1341 388 1753 388 
Q 2084 388 2306 591 
Q 2528 794 2588 1216 
z
" transform="scale(0.015625)"/>
       <path id="ArialMT-73" d="M 197 991 
L 753 1078 
Q 800 744 1014 566 
Q 1228 388 1613 388 
Q 2000 388 2187 545 
Q 2375 703 2375 916 
Q 2375 1106 2209 1216 
Q 2094 1291 1634 1406 
Q 1016 1563 777 1677 
Q 538 1791 414 1992 
Q 291 2194 291 2438 
Q 291 2659 392 2848 
Q 494 3038 669 3163 
Q 800 3259 1026 3326 
Q 1253 3394 1513 3394 
Q 1903 3394 2198 3281 
Q 2494 3169 2634 2976 
Q 2775 2784 2828 2463 
L 2278 2388 
Q 2241 2644 2061 2787 
Q 1881 2931 1553 2931 
Q 1166 2931 1000 2803 
Q 834 2675 834 2503 
Q 834 2394 903 2306 
Q 972 2216 1119 2156 
Q 1203 2125 1616 2013 
Q 2213 1853 2448 1751 
Q 2684 1650 2818 1456 
Q 2953 1263 2953 975 
Q 2953 694 2789 445 
Q 2625 197 2315 61 
Q 2006 -75 1616 -75 
Q 969 -75 630 194 
Q 291 463 197 991 
z
" transform="scale(0.015625)"/>
       <path id="ArialMT-4f" d="M 309 2231 
Q 309 3372 921 4017 
Q 1534 4663 2503 4663 
Q 3138 4663 3647 4359 
Q 4156 4056 4423 3514 
Q 4691 2972 4691 2284 
Q 4691 1588 4409 1038 
Q 4128 488 3612 205 
Q 3097 -78 2500 -78 
Q 1853 -78 1343 234 
Q 834 547 571 1087 
Q 309 1628 309 2231 
z
M 934 2222 
Q 934 1394 1379 917 
Q 1825 441 2497 441 
Q 3181 441 3623 922 
Q 4066 1403 4066 2288 
Q 4066 2847 3877 3264 
Q 3688 3681 3323 3911 
Q 2959 4141 2506 4141 
Q 1863 4141 1398 3698 
Q 934 3256 934 2222 
z
" transform="scale(0.015625)"/>
       <path id="ArialMT-41" d="M -9 0 
L 1750 4581 
L 2403 4581 
L 4278 0 
L 3588 0 
L 3053 1388 
L 1138 1388 
L 634 0 
L -9 0 
z
M 1313 1881 
L 2866 1881 
L 2388 3150 
Q 2169 3728 2063 4100 
Q 1975 3659 1816 3225 
L 1313 1881 
z
" transform="scale(0.015625)"/>
       <path id="ArialMT-28" d="M 1497 -1347 
Q 1031 -759 709 28 
Q 388 816 388 1659 
Q 388 2403 628 3084 
Q 909 3875 1497 4659 
L 1900 4659 
Q 1522 4009 1400 3731 
Q 1209 3300 1100 2831 
Q 966 2247 966 1656 
Q 966 153 1900 -1347 
L 1497 -1347 
z
" transform="scale(0.015625)"/>
       <path id="ArialMT-32" d="M 3222 541 
L 3222 0 
L 194 0 
Q 188 203 259 391 
Q 375 700 629 1000 
Q 884 1300 1366 1694 
Q 2113 2306 2375 2664 
Q 2638 3022 2638 3341 
Q 2638 3675 2398 3904 
Q 2159 4134 1775 4134 
Q 1369 4134 1125 3890 
Q 881 3647 878 3216 
L 300 3275 
Q 359 3922 746 4261 
Q 1134 4600 1788 4600 
Q 2447 4600 2831 4234 
Q 3216 3869 3216 3328 
Q 3216 3053 3103 2787 
Q 2991 2522 2730 2228 
Q 2469 1934 1863 1422 
Q 1356 997 1212 845 
Q 1069 694 975 541 
L 3222 541 
z
" transform="scale(0.015625)"/>
       <path id="ArialMT-30" d="M 266 2259 
Q 266 3072 433 3567 
Q 600 4063 929 4331 
Q 1259 4600 1759 4600 
Q 2128 4600 2406 4451 
Q 2684 4303 2865 4023 
Q 3047 3744 3150 3342 
Q 3253 2941 3253 2259 
Q 3253 1453 3087 958 
Q 2922 463 2592 192 
Q 2263 -78 1759 -78 
Q 1097 -78 719 397 
Q 266 969 266 2259 
z
M 844 2259 
Q 844 1131 1108 757 
Q 1372 384 1759 384 
Q 2147 384 2411 759 
Q 2675 1134 2675 2259 
Q 2675 3391 2411 3762 
Q 2147 4134 1753 4134 
Q 1366 4134 1134 3806 
Q 844 3388 844 2259 
z
" transform="scale(0.015625)"/>
       <path id="ArialMT-29" d="M 791 -1347 
L 388 -1347 
Q 1322 153 1322 1656 
Q 1322 2244 1188 2822 
Q 1081 3291 891 3722 
Q 769 4003 388 4659 
L 791 4659 
Q 1378 3875 1659 3084 
Q 1900 2403 1900 1659 
Q 1900 816 1576 28 
Q 1253 -759 791 -1347 
z
" transform="scale(0.015625)"/>
      </defs>
      <use xlink:href="#ArialMT-46"/>
      <use xlink:href="#ArialMT-6f" x="61.083984"/>
      <use xlink:href="#ArialMT-72" x="116.699219"/>
      <use xlink:href="#ArialMT-65" x="150"/>
      <use xlink:href="#ArialMT-63" x="205.615234"/>
      <use xlink:href="#ArialMT-61" x="255.615234"/>
      <use xlink:href="#ArialMT-73" x="311.230469"/>
      <use xlink:href="#ArialMT-74" x="361.230469"/>
      <use xlink:href="#ArialMT-20" x="389.013672"/>
      <use xlink:href="#ArialMT-4f" x="416.796875"/>
      <use xlink:href="#ArialMT-41" x="494.580078"/>
      <use xlink:href="#ArialMT-20" x="555.779297"/>
      <use xlink:href="#ArialMT-28" x="583.5625"/>
      <use xlink:href="#ArialMT-32" x="616.863281"/>
      <use xlink:href="#ArialMT-30" x="672.478516"/>
      <use xlink:href="#ArialMT-20" x="728.09375"/>
      <use xlink:href="#ArialMT-73" x="755.876953"/>
      <use xlink:href="#ArialMT-69" x="805.876953"/>
      <use xlink:href="#ArialMT-74" x="828.09375"/>
      <use xlink:href="#ArialMT-65" x="855.876953"/>
      <use xlink:href="#ArialMT-73" x="911.492188"/>
      <use xlink:href="#ArialMT-29" x="961.492188"/>
     </g>
    </g>
   </g>
  </g>
  <g id="axes_2">
   <g id="PolyCollection_1">
    <defs>
     <path id="m183148afe4" d="M 87.954545 -535.01875 
L 87.954545 -47.52 
L 133.815152 -47.52 
L 179.675758 -47.52 
L 225.536364 -47.52 
L 271.39697 -47.52 
L 317.257576 -47.52 
L 363.118182 -47.52 
L 408.978788 -47.52 
L 454.839394 -47.52 
L 500.7 -47.52 
L 546.560606 -47.52 
L 592.421212 -47.52 
L 638.281818 -47.52 
L 684.142424 -47.52 
L 730.00303 -47.52 
L 775.863636 -47.52 
L 821.724242 -47.52 
L 867.584848 -47.52 
L 913.445455 -47.52 
L 913.445455 -535.01875 
L 913.445455 -535.01875 
L 867.584848 -535.01875 
L 821.724242 -535.01875 
L 775.863636 -535.01875 
L 730.00303 -535.01875 
L 684.142424 -535.01875 
L 638.281818 -535.01875 
L 592.421212 -535.01875 
L 546.560606 -535.01875 
L 500.7 -535.01875 
L 454.839394 -535.01875 
L 408.978788 -535.01875 
L 363.118182 -535.01875 
L 317.257576 -535.01875 
L 271.39697 -535.01875 
L 225.536364 -535.01875 
L 179.675758 -535.01875 
L 133.815152 -535.01875 
L 87.954545 -535.01875 
z
" style="stroke: #f5f5f5; stroke-opacity: 0.2"/>
    </defs>
    <g clip-path="url(#paa9f073c77)">
     <use xlink:href="#m183148afe4" x="0" y="573.86625" style="fill: #f5f5f5; fill-opacity: 0.2; stroke: #f5f5f5; stroke-opacity: 0.2"/>
    </g>
   </g>
   <g id="matplotlib.axis_3">
    <g id="ytick_6">
     <g id="line2d_20">
      <path d="M 46.68 477.596375 
L 954.72 477.596375 
" clip-path="url(#paa9f073c77)" style="fill: none; stroke-dasharray: 2.96,1.28; stroke-dashoffset: 0; stroke: #cccccc; stroke-opacity: 0.3; stroke-width: 0.8"/>
     </g>
     <g id="line2d_21">
      <defs>
       <path id="me6d248a8c9" d="M 0 0 
L 6 0 
" style="stroke: #666666; stroke-width: 1.25"/>
      </defs>
      <g>
       <use xlink:href="#me6d248a8c9" x="954.72" y="477.596375" style="fill: #666666; stroke: #666666; stroke-width: 1.25"/>
      </g>
     </g>
     <g id="text_36">
      <!-- 4 -->
      <g style="fill: #262626" transform="translate(964.22 480.817391) scale(0.09 -0.09)">
       <defs>
        <path id="ArialMT-2212" d="M 3381 1997 
L 356 1997 
L 356 2522 
L 3381 2522 
L 3381 1997 
z
" transform="scale(0.015625)"/>
        <path id="ArialMT-34" d="M 2069 0 
L 2069 1097 
L 81 1097 
L 81 1613 
L 2172 4581 
L 2631 4581 
L 2631 1613 
L 3250 1613 
L 3250 1097 
L 2631 1097 
L 2631 0 
L 2069 0 
z
M 2069 1613 
L 2069 3678 
L 634 1613 
L 2069 1613 
z
" transform="scale(0.015625)"/>
       </defs>
       <use xlink:href="#ArialMT-2212"/>
       <use xlink:href="#ArialMT-34" x="58.398438"/>
      </g>
     </g>
    </g>
    <g id="ytick_7">
     <g id="line2d_22">
      <path d="M 46.68 380.096625 
L 954.72 380.096625 
" clip-path="url(#paa9f073c77)" style="fill: none; stroke-dasharray: 2.96,1.28; stroke-dashoffset: 0; stroke: #cccccc; stroke-opacity: 0.3; stroke-width: 0.8"/>
     </g>
     <g id="line2d_23">
      <g>
       <use xlink:href="#me6d248a8c9" x="954.72" y="380.096625" style="fill: #666666; stroke: #666666; stroke-width: 1.25"/>
      </g>
     </g>
     <g id="text_37">
      <!-- 2 -->
      <g style="fill: #262626" transform="translate(964.22 383.317641) scale(0.09 -0.09)">
       <use xlink:href="#ArialMT-2212"/>
       <use xlink:href="#ArialMT-32" x="58.398438"/>
      </g>
     </g>
    </g>
    <g id="ytick_8">
     <g id="line2d_24">
      <path d="M 46.68 282.596875 
L 954.72 282.596875 
" clip-path="url(#paa9f073c77)" style="fill: none; stroke-dasharray: 2.96,1.28; stroke-dashoffset: 0; stroke: #cccccc; stroke-opacity: 0.3; stroke-width: 0.8"/>
     </g>
     <g id="line2d_25">
      <g>
       <use xlink:href="#me6d248a8c9" x="954.72" y="282.596875" style="fill: #666666; stroke: #666666; stroke-width: 1.25"/>
      </g>
     </g>
     <g id="text_38">
      <!-- 0 -->
      <g style="fill: #262626" transform="translate(964.22 285.817891) scale(0.09 -0.09)">
       <use xlink:href="#ArialMT-30"/>
      </g>
     </g>
    </g>
    <g id="ytick_9">
     <g id="line2d_26">
      <path d="M 46.68 185.097125 
L 954.72 185.097125 
" clip-path="url(#paa9f073c77)" style="fill: none; stroke-dasharray: 2.96,1.28; stroke-dashoffset: 0; stroke: #cccccc; stroke-opacity: 0.3; stroke-width: 0.8"/>
     </g>
     <g id="line2d_27">
      <g>
       <use xlink:href="#me6d248a8c9" x="954.72" y="185.097125" style="fill: #666666; stroke: #666666; stroke-width: 1.25"/>
      </g>
     </g>
     <g id="text_39">
      <!-- 2 -->
      <g style="fill: #262626" transform="translate(964.22 188.318141) scale(0.09 -0.09)">
       <use xlink:href="#ArialMT-32"/>
      </g>
     </g>
    </g>
    <g id="ytick_10">
     <g id="line2d_28">
      <path d="M 46.68 87.597375 
L 954.72 87.597375 
" clip-path="url(#paa9f073c77)" style="fill: none; stroke-dasharray: 2.96,1.28; stroke-dashoffset: 0; stroke: #cccccc; stroke-opacity: 0.3; stroke-width: 0.8"/>
     </g>
     <g id="line2d_29">
      <g>
       <use xlink:href="#me6d248a8c9" x="954.72" y="87.597375" style="fill: #666666; stroke: #666666; stroke-width: 1.25"/>
      </g>
     </g>
     <g id="text_40">
      <!-- 4 -->
      <g style="fill: #262626" transform="translate(964.22 90.818391) scale(0.09 -0.09)">
       <use xlink:href="#ArialMT-34"/>
      </g>
     </g>
    </g>
    <g id="text_41">
     <!-- Cumulative Gap -->
     <g style="fill: #666666" transform="translate(992.489062 322.029297) rotate(-90) scale(0.11 -0.11)">
      <defs>
       <path id="ArialMT-47" d="M 2638 1797 
L 2638 2334 
L 4578 2338 
L 4578 638 
Q 4131 281 3656 101 
Q 3181 -78 2681 -78 
Q 2006 -78 1454 211 
Q 903 500 622 1047 
Q 341 1594 341 2269 
Q 341 2938 620 3517 
Q 900 4097 1425 4378 
Q 1950 4659 2634 4659 
Q 3131 4659 3532 4498 
Q 3934 4338 4162 4050 
Q 4391 3763 4509 3300 
L 3963 3150 
Q 3859 3500 3706 3700 
Q 3553 3900 3268 4020 
Q 2984 4141 2638 4141 
Q 2222 4141 1919 4014 
Q 1616 3888 1430 3681 
Q 1244 3475 1141 3228 
Q 966 2803 966 2306 
Q 966 1694 1177 1281 
Q 1388 869 1791 669 
Q 2194 469 2647 469 
Q 3041 469 3416 620 
Q 3791 772 3984 944 
L 3984 1797 
L 2638 1797 
z
" transform="scale(0.015625)"/>
       <path id="ArialMT-70" d="M 422 -1272 
L 422 3319 
L 934 3319 
L 934 2888 
Q 1116 3141 1344 3267 
Q 1572 3394 1897 3394 
Q 2322 3394 2647 3175 
Q 2972 2956 3137 2557 
Q 3303 2159 3303 1684 
Q 3303 1175 3120 767 
Q 2938 359 2589 142 
Q 2241 -75 1856 -75 
Q 1575 -75 1351 44 
Q 1128 163 984 344 
L 984 -1272 
L 422 -1272 
z
M 931 1641 
Q 931 1000 1190 694 
Q 1450 388 1819 388 
Q 2194 388 2461 705 
Q 2728 1022 2728 1688 
Q 2728 2322 2467 2637 
Q 2206 2953 1844 2953 
Q 1484 2953 1207 2617 
Q 931 2281 931 1641 
z
" transform="scale(0.015625)"/>
      </defs>
      <use xlink:href="#ArialMT-43"/>
      <use xlink:href="#ArialMT-75" x="72.216797"/>
      <use xlink:href="#ArialMT-6d" x="127.832031"/>
      <use xlink:href="#ArialMT-75" x="211.132812"/>
      <use xlink:href="#ArialMT-6c" x="266.748047"/>
      <use xlink:href="#ArialMT-61" x="288.964844"/>
      <use xlink:href="#ArialMT-74" x="344.580078"/>
      <use xlink:href="#ArialMT-69" x="372.363281"/>
      <use xlink:href="#ArialMT-76" x="394.580078"/>
      <use xlink:href="#ArialMT-65" x="444.580078"/>
      <use xlink:href="#ArialMT-20" x="500.195312"/>
      <use xlink:href="#ArialMT-47" x="527.978516"/>
      <use xlink:href="#ArialMT-61" x="605.761719"/>
      <use xlink:href="#ArialMT-70" x="661.376953"/>
     </g>
    </g>
   </g>
   <g id="line2d_30">
    <path d="M 46.68 282.596875 
L 954.72 282.596875 
" clip-path="url(#paa9f073c77)" style="fill: none; stroke: #666666; stroke-opacity: 0.3; stroke-linecap: round"/>
   </g>
   <g id="patch_26">
    <path d="M 46.68 526.34625 
L 46.68 38.8475 
" style="fill: none; stroke: #cccccc; stroke-linejoin: miter; stroke-linecap: square"/>
   </g>
   <g id="patch_27">
    <path d="M 954.72 526.34625 
L 954.72 38.8475 
" style="fill: none; stroke: #cccccc; stroke-linejoin: miter; stroke-linecap: square"/>
   </g>
   <g id="patch_28">
    <path d="M 46.68 526.34625 
L 954.72 526.34625 
" style="fill: none; stroke: #cccccc; stroke-linejoin: miter; stroke-linecap: square"/>
   </g>
  </g>
  <g id="text_42">
   <!-- Report generated: 2025-04-20 -->
   <g style="fill: #666666" transform="translate(887.4175 564.9825) scale(0.08 -0.08)">
    <defs>
     <path id="ArialMT-52" d="M 503 0 
L 503 4581 
L 2534 4581 
Q 3147 4581 3465 4457 
Q 3784 4334 3975 4021 
Q 4166 3709 4166 3331 
Q 4166 2844 3850 2509 
Q 3534 2175 2875 2084 
Q 3116 1969 3241 1856 
Q 3506 1613 3744 1247 
L 4541 0 
L 3778 0 
L 3172 953 
Q 2906 1366 2734 1584 
Q 2563 1803 2427 1890 
Q 2291 1978 2150 2013 
Q 2047 2034 1813 2034 
L 1109 2034 
L 1109 0 
L 503 0 
z
M 1109 2559 
L 2413 2559 
Q 2828 2559 3062 2645 
Q 3297 2731 3419 2920 
Q 3541 3109 3541 3331 
Q 3541 3656 3305 3865 
Q 3069 4075 2559 4075 
L 1109 4075 
L 1109 2559 
z
" transform="scale(0.015625)"/>
     <path id="ArialMT-67" d="M 319 -275 
L 866 -356 
Q 900 -609 1056 -725 
Q 1266 -881 1628 -881 
Q 2019 -881 2231 -725 
Q 2444 -569 2519 -288 
Q 2563 -116 2559 434 
Q 2191 0 1641 0 
Q 956 0 581 494 
Q 206 988 206 1678 
Q 206 2153 378 2554 
Q 550 2956 876 3175 
Q 1203 3394 1644 3394 
Q 2231 3394 2613 2919 
L 2613 3319 
L 3131 3319 
L 3131 450 
Q 3131 -325 2973 -648 
Q 2816 -972 2473 -1159 
Q 2131 -1347 1631 -1347 
Q 1038 -1347 672 -1080 
Q 306 -813 319 -275 
z
M 784 1719 
Q 784 1066 1043 766 
Q 1303 466 1694 466 
Q 2081 466 2343 764 
Q 2606 1063 2606 1700 
Q 2606 2309 2336 2618 
Q 2066 2928 1684 2928 
Q 1309 2928 1046 2623 
Q 784 2319 784 1719 
z
" transform="scale(0.015625)"/>
     <path id="ArialMT-64" d="M 2575 0 
L 2575 419 
Q 2259 -75 1647 -75 
Q 1250 -75 917 144 
Q 584 363 401 755 
Q 219 1147 219 1656 
Q 219 2153 384 2558 
Q 550 2963 881 3178 
Q 1213 3394 1622 3394 
Q 1922 3394 2156 3267 
Q 2391 3141 2538 2938 
L 2538 4581 
L 3097 4581 
L 3097 0 
L 2575 0 
z
M 797 1656 
Q 797 1019 1065 703 
Q 1334 388 1700 388 
Q 2069 388 2326 689 
Q 2584 991 2584 1609 
Q 2584 2291 2321 2609 
Q 2059 2928 1675 2928 
Q 1300 2928 1048 2622 
Q 797 2316 797 1656 
z
" transform="scale(0.015625)"/>
     <path id="ArialMT-3a" d="M 578 2678 
L 578 3319 
L 1219 3319 
L 1219 2678 
L 578 2678 
z
M 578 0 
L 578 641 
L 1219 641 
L 1219 0 
L 578 0 
z
" transform="scale(0.015625)"/>
     <path id="ArialMT-35" d="M 266 1200 
L 856 1250 
Q 922 819 1161 601 
Q 1400 384 1738 384 
Q 2144 384 2425 690 
Q 2706 997 2706 1503 
Q 2706 1984 2436 2262 
Q 2166 2541 1728 2541 
Q 1456 2541 1237 2417 
Q 1019 2294 894 2097 
L 366 2166 
L 809 4519 
L 3088 4519 
L 3088 3981 
L 1259 3981 
L 1013 2750 
Q 1425 3038 1878 3038 
Q 2478 3038 2890 2622 
Q 3303 2206 3303 1553 
Q 3303 931 2941 478 
Q 2500 -78 1738 -78 
Q 1113 -78 717 272 
Q 322 622 266 1200 
z
" transform="scale(0.015625)"/>
     <path id="ArialMT-2d" d="M 203 1375 
L 203 1941 
L 1931 1941 
L 1931 1375 
L 203 1375 
z
" transform="scale(0.015625)"/>
    </defs>
    <use xlink:href="#ArialMT-52"/>
    <use xlink:href="#ArialMT-65" x="72.216797"/>
    <use xlink:href="#ArialMT-70" x="127.832031"/>
    <use xlink:href="#ArialMT-6f" x="183.447266"/>
    <use xlink:href="#ArialMT-72" x="239.0625"/>
    <use xlink:href="#ArialMT-74" x="272.363281"/>
    <use xlink:href="#ArialMT-20" x="300.146484"/>
    <use xlink:href="#ArialMT-67" x="327.929688"/>
    <use xlink:href="#ArialMT-65" x="383.544922"/>
    <use xlink:href="#ArialMT-6e" x="439.160156"/>
    <use xlink:href="#ArialMT-65" x="494.775391"/>
    <use xlink:href="#ArialMT-72" x="550.390625"/>
    <use xlink:href="#ArialMT-61" x="583.691406"/>
    <use xlink:href="#ArialMT-74" x="639.306641"/>
    <use xlink:href="#ArialMT-65" x="667.089844"/>
    <use xlink:href="#ArialMT-64" x="722.705078"/>
    <use xlink:href="#ArialMT-3a" x="778.320312"/>
    <use xlink:href="#ArialMT-20" x="806.103516"/>
    <use xlink:href="#ArialMT-32" x="833.886719"/>
    <use xlink:href="#ArialMT-30" x="889.501953"/>
    <use xlink:href="#ArialMT-32" x="945.117188"/>
    <use xlink:href="#ArialMT-35" x="1000.732422"/>
    <use xlink:href="#ArialMT-2d" x="1056.347656"/>
    <use xlink:href="#ArialMT-30" x="1089.648438"/>
    <use xlink:href="#ArialMT-34" x="1145.263672"/>
    <use xlink:href="#ArialMT-2d" x="1200.878906"/>
    <use xlink:href="#ArialMT-32" x="1234.179688"/>
    <use xlink:href="#ArialMT-30" x="1289.794922"/>
   </g>
  </g>
  <g id="text_43">
   <!-- Data Source: Project Implementation Tracking System -->
   <g style="fill: #666666" transform="translate(7.2 564.9825) scale(0.08 -0.08)">
    <defs>
     <path id="ArialMT-44" d="M 494 0 
L 494 4581 
L 2072 4581 
Q 2606 4581 2888 4516 
Q 3281 4425 3559 4188 
Q 3922 3881 4101 3404 
Q 4281 2928 4281 2316 
Q 4281 1794 4159 1391 
Q 4038 988 3847 723 
Q 3656 459 3429 307 
Q 3203 156 2883 78 
Q 2563 0 2147 0 
L 494 0 
z
M 1100 541 
L 2078 541 
Q 2531 541 2789 625 
Q 3047 709 3200 863 
Q 3416 1078 3536 1442 
Q 3656 1806 3656 2325 
Q 3656 3044 3420 3430 
Q 3184 3816 2847 3947 
Q 2603 4041 2063 4041 
L 1100 4041 
L 1100 541 
z
" transform="scale(0.015625)"/>
     <path id="ArialMT-50" d="M 494 0 
L 494 4581 
L 2222 4581 
Q 2678 4581 2919 4538 
Q 3256 4481 3484 4323 
Q 3713 4166 3852 3881 
Q 3991 3597 3991 3256 
Q 3991 2672 3619 2267 
Q 3247 1863 2275 1863 
L 1100 1863 
L 1100 0 
L 494 0 
z
M 1100 2403 
L 2284 2403 
Q 2872 2403 3119 2622 
Q 3366 2841 3366 3238 
Q 3366 3525 3220 3729 
Q 3075 3934 2838 4000 
Q 2684 4041 2272 4041 
L 1100 4041 
L 1100 2403 
z
" transform="scale(0.015625)"/>
     <path id="ArialMT-6a" d="M 419 3928 
L 419 4581 
L 981 4581 
L 981 3928 
L 419 3928 
z
M -294 -1288 
L -188 -809 
Q -19 -853 78 -853 
Q 250 -853 334 -739 
Q 419 -625 419 -169 
L 419 3319 
L 981 3319 
L 981 -181 
Q 981 -794 822 -1034 
Q 619 -1347 147 -1347 
Q -81 -1347 -294 -1288 
z
" transform="scale(0.015625)"/>
     <path id="ArialMT-49" d="M 597 0 
L 597 4581 
L 1203 4581 
L 1203 0 
L 597 0 
z
" transform="scale(0.015625)"/>
     <path id="ArialMT-54" d="M 1659 0 
L 1659 4041 
L 150 4041 
L 150 4581 
L 3781 4581 
L 3781 4041 
L 2266 4041 
L 2266 0 
L 1659 0 
z
" transform="scale(0.015625)"/>
     <path id="ArialMT-6b" d="M 425 0 
L 425 4581 
L 988 4581 
L 988 1969 
L 2319 3319 
L 3047 3319 
L 1778 2088 
L 3175 0 
L 2481 0 
L 1384 1697 
L 988 1316 
L 988 0 
L 425 0 
z
" transform="scale(0.015625)"/>
     <path id="ArialMT-79" d="M 397 -1278 
L 334 -750 
Q 519 -800 656 -800 
Q 844 -800 956 -737 
Q 1069 -675 1141 -563 
Q 1194 -478 1313 -144 
Q 1328 -97 1363 -6 
L 103 3319 
L 709 3319 
L 1400 1397 
Q 1534 1031 1641 628 
Q 1738 1016 1872 1384 
L 2581 3319 
L 3144 3319 
L 1881 -56 
Q 1678 -603 1566 -809 
Q 1416 -1088 1222 -1217 
Q 1028 -1347 759 -1347 
Q 597 -1347 397 -1278 
z
" transform="scale(0.015625)"/>
    </defs>
    <use xlink:href="#ArialMT-44"/>
    <use xlink:href="#ArialMT-61" x="72.216797"/>
    <use xlink:href="#ArialMT-74" x="127.832031"/>
    <use xlink:href="#ArialMT-61" x="155.615234"/>
    <use xlink:href="#ArialMT-20" x="211.230469"/>
    <use xlink:href="#ArialMT-53" x="239.013672"/>
    <use xlink:href="#ArialMT-6f" x="305.712891"/>
    <use xlink:href="#ArialMT-75" x="361.328125"/>
    <use xlink:href="#ArialMT-72" x="416.943359"/>
    <use xlink:href="#ArialMT-63" x="450.244141"/>
    <use xlink:href="#ArialMT-65" x="500.244141"/>
    <use xlink:href="#ArialMT-3a" x="555.859375"/>
    <use xlink:href="#ArialMT-20" x="583.642578"/>
    <use xlink:href="#ArialMT-50" x="611.425781"/>
    <use xlink:href="#ArialMT-72" x="678.125"/>
    <use xlink:href="#ArialMT-6f" x="711.425781"/>
    <use xlink:href="#ArialMT-6a" x="767.041016"/>
    <use xlink:href="#ArialMT-65" x="789.257812"/>
    <use xlink:href="#ArialMT-63" x="844.873047"/>
    <use xlink:href="#ArialMT-74" x="894.873047"/>
    <use xlink:href="#ArialMT-20" x="922.65625"/>
    <use xlink:href="#ArialMT-49" x="950.439453"/>
    <use xlink:href="#ArialMT-6d" x="978.222656"/>
    <use xlink:href="#ArialMT-70" x="1061.523438"/>
    <use xlink:href="#ArialMT-6c" x="1117.138672"/>
    <use xlink:href="#ArialMT-65" x="1139.355469"/>
    <use xlink:href="#ArialMT-6d" x="1194.970703"/>
    <use xlink:href="#ArialMT-65" x="1278.271484"/>
    <use xlink:href="#ArialMT-6e" x="1333.886719"/>
    <use xlink:href="#ArialMT-74" x="1389.501953"/>
    <use xlink:href="#ArialMT-61" x="1417.285156"/>
    <use xlink:href="#ArialMT-74" x="1472.900391"/>
    <use xlink:href="#ArialMT-69" x="1500.683594"/>
    <use xlink:href="#ArialMT-6f" x="1522.900391"/>
    <use xlink:href="#ArialMT-6e" x="1578.515625"/>
    <use xlink:href="#ArialMT-20" x="1634.130859"/>
    <use xlink:href="#ArialMT-54" x="1660.164062"/>
    <use xlink:href="#ArialMT-72" x="1717.498047"/>
    <use xlink:href="#ArialMT-61" x="1750.798828"/>
    <use xlink:href="#ArialMT-63" x="1806.414062"/>
    <use xlink:href="#ArialMT-6b" x="1856.414062"/>
    <use xlink:href="#ArialMT-69" x="1906.414062"/>
    <use xlink:href="#ArialMT-6e" x="1928.630859"/>
    <use xlink:href="#ArialMT-67" x="1984.246094"/>
    <use xlink:href="#ArialMT-20" x="2039.861328"/>
    <use xlink:href="#ArialMT-53" x="2067.644531"/>
    <use xlink:href="#ArialMT-79" x="2134.34375"/>
    <use xlink:href="#ArialMT-73" x="2184.34375"/>
    <use xlink:href="#ArialMT-74" x="2234.34375"/>
    <use xlink:href="#ArialMT-65" x="2262.126953"/>
    <use xlink:href="#ArialMT-6d" x="2317.742188"/>
   </g>
  </g>
 </g>
 <defs>
  <clipPath id="paa9f073c77">
   <rect x="46.68" y="38.8475" width="908.04" height="487.49875"/>
  </clipPath>
 </defs>
</svg>
