<?xml version="1.0" encoding="utf-8" standalone="no"?>
<!DOCTYPE svg PUBLIC "-//W3C//DTD SVG 1.1//EN"
  "http://www.w3.org/Graphics/SVG/1.1/DTD/svg11.dtd">
<svg xmlns:xlink="http://www.w3.org/1999/xlink" width="500.821875pt" height="392.41675pt" viewBox="0 0 500.821875 392.41675" xmlns="http://www.w3.org/2000/svg" version="1.1">
 <metadata>
  <rdf:RDF xmlns:dc="http://purl.org/dc/elements/1.1/" xmlns:cc="http://creativecommons.org/ns#" xmlns:rdf="http://www.w3.org/1999/02/22-rdf-syntax-ns#">
   <cc:Work>
    <dc:type rdf:resource="http://purl.org/dc/dcmitype/StillImage"/>
    <dc:date>2025-04-20T19:39:40.556679</dc:date>
    <dc:format>image/svg+xml</dc:format>
    <dc:creator>
     <cc:Agent>
      <dc:title>Matplotlib v3.8.2, https://matplotlib.org/</dc:title>
     </cc:Agent>
    </dc:creator>
   </cc:Work>
  </rdf:RDF>
 </metadata>
 <defs>
  <style type="text/css">*{stroke-linejoin: round; stroke-linecap: butt}</style>
 </defs>
 <g id="figure_1">
  <g id="patch_1">
   <path d="M -0 392.41675 
L 500.821875 392.41675 
L 500.821875 0 
L -0 0 
z
" style="fill: #ffffff"/>
  </g>
  <g id="axes_1">
   <g id="matplotlib.axis_1"/>
   <g id="matplotlib.axis_2"/>
   <g id="patch_2">
    <path d="M 173.52 85.84075 
C 152.8637 85.84075 132.48839 90.650936 114.013029 99.889105 
C 95.537668 109.127274 79.464902 122.542091 67.071821 139.067655 
C 54.678741 155.59322 46.302515 174.779934 42.608694 195.103281 
C 38.914873 215.426627 40.003952 236.333685 45.789394 256.163243 
C 51.574837 275.992801 61.899244 294.205373 75.94227 309.353843 
C 89.985295 324.502313 107.364883 336.17455 126.700102 343.443112 
C 146.035322 350.711675 166.800137 353.378813 187.344638 351.232605 
C 207.889138 349.086397 227.654388 342.185233 245.069899 331.077457 
L 173.52 218.89675 
z
" style="fill: #2c3e50; stroke: #ffffff; stroke-linejoin: miter"/>
   </g>
   <g id="patch_3">
    <path d="M 245.069899 331.077457 
C 269.336686 315.599875 287.938339 292.658362 298.06636 265.716653 
C 308.194381 238.774945 309.312047 209.26079 301.250609 181.630269 
C 293.189172 153.999748 276.37584 129.717113 253.349109 112.448582 
C 230.322379 95.180052 202.302528 85.840755 173.520025 85.84075 
L 173.52 218.89675 
z
" style="fill: #27ae60; stroke: #ffffff; stroke-linejoin: miter"/>
   </g>
   <g id="text_1">
    <!-- 59.0% -->
    <g style="fill: #ffffff" transform="translate(52.190079 252.906238) scale(0.09 -0.09)">
     <defs>
      <path id="Arial-BoldMT-35" d="M 284 1178 
L 1159 1269 
Q 1197 972 1381 798 
Q 1566 625 1806 625 
Q 2081 625 2272 848 
Q 2463 1072 2463 1522 
Q 2463 1944 2273 2155 
Q 2084 2366 1781 2366 
Q 1403 2366 1103 2031 
L 391 2134 
L 841 4519 
L 3163 4519 
L 3163 3697 
L 1506 3697 
L 1369 2919 
Q 1663 3066 1969 3066 
Q 2553 3066 2959 2641 
Q 3366 2216 3366 1538 
Q 3366 972 3038 528 
Q 2591 -78 1797 -78 
Q 1163 -78 763 262 
Q 363 603 284 1178 
z
" transform="scale(0.015625)"/>
      <path id="Arial-BoldMT-39" d="M 291 1059 
L 1141 1153 
Q 1172 894 1303 769 
Q 1434 644 1650 644 
Q 1922 644 2112 894 
Q 2303 1144 2356 1931 
Q 2025 1547 1528 1547 
Q 988 1547 595 1964 
Q 203 2381 203 3050 
Q 203 3747 617 4173 
Q 1031 4600 1672 4600 
Q 2369 4600 2816 4061 
Q 3263 3522 3263 2288 
Q 3263 1031 2797 475 
Q 2331 -81 1584 -81 
Q 1047 -81 715 205 
Q 384 491 291 1059 
z
M 2278 2978 
Q 2278 3403 2083 3637 
Q 1888 3872 1631 3872 
Q 1388 3872 1227 3680 
Q 1066 3488 1066 3050 
Q 1066 2606 1241 2398 
Q 1416 2191 1678 2191 
Q 1931 2191 2104 2391 
Q 2278 2591 2278 2978 
z
" transform="scale(0.015625)"/>
      <path id="Arial-BoldMT-2e" d="M 459 0 
L 459 878 
L 1338 878 
L 1338 0 
L 459 0 
z
" transform="scale(0.015625)"/>
      <path id="Arial-BoldMT-30" d="M 1756 4600 
Q 2422 4600 2797 4125 
Q 3244 3563 3244 2259 
Q 3244 959 2794 391 
Q 2422 -78 1756 -78 
Q 1088 -78 678 436 
Q 269 950 269 2269 
Q 269 3563 719 4131 
Q 1091 4600 1756 4600 
z
M 1756 3872 
Q 1597 3872 1472 3770 
Q 1347 3669 1278 3406 
Q 1188 3066 1188 2259 
Q 1188 1453 1269 1151 
Q 1350 850 1473 750 
Q 1597 650 1756 650 
Q 1916 650 2041 751 
Q 2166 853 2234 1116 
Q 2325 1453 2325 2259 
Q 2325 3066 2244 3367 
Q 2163 3669 2039 3770 
Q 1916 3872 1756 3872 
z
" transform="scale(0.015625)"/>
      <path id="Arial-BoldMT-25" d="M 278 3450 
Q 278 4066 548 4362 
Q 819 4659 1281 4659 
Q 1759 4659 2029 4364 
Q 2300 4069 2300 3450 
Q 2300 2834 2029 2537 
Q 1759 2241 1297 2241 
Q 819 2241 548 2536 
Q 278 2831 278 3450 
z
M 963 3456 
Q 963 3009 1066 2856 
Q 1144 2744 1281 2744 
Q 1422 2744 1500 2856 
Q 1600 3009 1600 3456 
Q 1600 3903 1500 4053 
Q 1422 4169 1281 4169 
Q 1144 4169 1066 4056 
Q 963 3903 963 3456 
z
M 1950 -175 
L 1300 -175 
L 3741 4659 
L 4372 4659 
L 1950 -175 
z
M 3369 1028 
Q 3369 1644 3639 1941 
Q 3909 2238 4378 2238 
Q 4850 2238 5120 1941 
Q 5391 1644 5391 1028 
Q 5391 409 5120 112 
Q 4850 -184 4388 -184 
Q 3909 -184 3639 112 
Q 3369 409 3369 1028 
z
M 4053 1031 
Q 4053 584 4156 434 
Q 4234 319 4372 319 
Q 4513 319 4588 431 
Q 4691 584 4691 1031 
Q 4691 1478 4591 1631 
Q 4513 1744 4372 1744 
Q 4231 1744 4156 1631 
Q 4053 1478 4053 1031 
z
" transform="scale(0.015625)"/>
     </defs>
     <use xlink:href="#Arial-BoldMT-35"/>
     <use xlink:href="#Arial-BoldMT-39" x="55.615234"/>
     <use xlink:href="#Arial-BoldMT-2e" x="111.230469"/>
     <use xlink:href="#Arial-BoldMT-30" x="139.013672"/>
     <use xlink:href="#Arial-BoldMT-25" x="194.628906"/>
    </g>
   </g>
   <g id="text_2">
    <!-- 41.0% -->
    <g style="fill: #ffffff" transform="translate(269.332112 189.55321) scale(0.09 -0.09)">
     <defs>
      <path id="Arial-BoldMT-34" d="M 1994 0 
L 1994 922 
L 119 922 
L 119 1691 
L 2106 4600 
L 2844 4600 
L 2844 1694 
L 3413 1694 
L 3413 922 
L 2844 922 
L 2844 0 
L 1994 0 
z
M 1994 1694 
L 1994 3259 
L 941 1694 
L 1994 1694 
z
" transform="scale(0.015625)"/>
      <path id="Arial-BoldMT-31" d="M 2519 0 
L 1641 0 
L 1641 3309 
Q 1159 2859 506 2644 
L 506 3441 
Q 850 3553 1253 3867 
Q 1656 4181 1806 4600 
L 2519 4600 
L 2519 0 
z
" transform="scale(0.015625)"/>
     </defs>
     <use xlink:href="#Arial-BoldMT-34"/>
     <use xlink:href="#Arial-BoldMT-31" x="55.615234"/>
     <use xlink:href="#Arial-BoldMT-2e" x="111.230469"/>
     <use xlink:href="#Arial-BoldMT-30" x="139.013672"/>
     <use xlink:href="#Arial-BoldMT-25" x="194.628906"/>
    </g>
   </g>
   <g id="text_3">
    <!-- ALU PROJECT_ZTE_UPGRADE(153) -->
    <g style="fill: #2c3e50" transform="translate(53.325625 17.400312) scale(0.14 -0.14)">
     <defs>
      <path id="ArialMT-41" d="M -9 0 
L 1750 4581 
L 2403 4581 
L 4278 0 
L 3588 0 
L 3053 1388 
L 1138 1388 
L 634 0 
L -9 0 
z
M 1313 1881 
L 2866 1881 
L 2388 3150 
Q 2169 3728 2063 4100 
Q 1975 3659 1816 3225 
L 1313 1881 
z
" transform="scale(0.015625)"/>
      <path id="ArialMT-4c" d="M 469 0 
L 469 4581 
L 1075 4581 
L 1075 541 
L 3331 541 
L 3331 0 
L 469 0 
z
" transform="scale(0.015625)"/>
      <path id="ArialMT-55" d="M 3500 4581 
L 4106 4581 
L 4106 1934 
Q 4106 1244 3950 837 
Q 3794 431 3386 176 
Q 2978 -78 2316 -78 
Q 1672 -78 1262 144 
Q 853 366 678 786 
Q 503 1206 503 1934 
L 503 4581 
L 1109 4581 
L 1109 1938 
Q 1109 1341 1220 1058 
Q 1331 775 1601 622 
Q 1872 469 2263 469 
Q 2931 469 3215 772 
Q 3500 1075 3500 1938 
L 3500 4581 
z
" transform="scale(0.015625)"/>
      <path id="ArialMT-20" transform="scale(0.015625)"/>
      <path id="ArialMT-50" d="M 494 0 
L 494 4581 
L 2222 4581 
Q 2678 4581 2919 4538 
Q 3256 4481 3484 4323 
Q 3713 4166 3852 3881 
Q 3991 3597 3991 3256 
Q 3991 2672 3619 2267 
Q 3247 1863 2275 1863 
L 1100 1863 
L 1100 0 
L 494 0 
z
M 1100 2403 
L 2284 2403 
Q 2872 2403 3119 2622 
Q 3366 2841 3366 3238 
Q 3366 3525 3220 3729 
Q 3075 3934 2838 4000 
Q 2684 4041 2272 4041 
L 1100 4041 
L 1100 2403 
z
" transform="scale(0.015625)"/>
      <path id="ArialMT-52" d="M 503 0 
L 503 4581 
L 2534 4581 
Q 3147 4581 3465 4457 
Q 3784 4334 3975 4021 
Q 4166 3709 4166 3331 
Q 4166 2844 3850 2509 
Q 3534 2175 2875 2084 
Q 3116 1969 3241 1856 
Q 3506 1613 3744 1247 
L 4541 0 
L 3778 0 
L 3172 953 
Q 2906 1366 2734 1584 
Q 2563 1803 2427 1890 
Q 2291 1978 2150 2013 
Q 2047 2034 1813 2034 
L 1109 2034 
L 1109 0 
L 503 0 
z
M 1109 2559 
L 2413 2559 
Q 2828 2559 3062 2645 
Q 3297 2731 3419 2920 
Q 3541 3109 3541 3331 
Q 3541 3656 3305 3865 
Q 3069 4075 2559 4075 
L 1109 4075 
L 1109 2559 
z
" transform="scale(0.015625)"/>
      <path id="ArialMT-4f" d="M 309 2231 
Q 309 3372 921 4017 
Q 1534 4663 2503 4663 
Q 3138 4663 3647 4359 
Q 4156 4056 4423 3514 
Q 4691 2972 4691 2284 
Q 4691 1588 4409 1038 
Q 4128 488 3612 205 
Q 3097 -78 2500 -78 
Q 1853 -78 1343 234 
Q 834 547 571 1087 
Q 309 1628 309 2231 
z
M 934 2222 
Q 934 1394 1379 917 
Q 1825 441 2497 441 
Q 3181 441 3623 922 
Q 4066 1403 4066 2288 
Q 4066 2847 3877 3264 
Q 3688 3681 3323 3911 
Q 2959 4141 2506 4141 
Q 1863 4141 1398 3698 
Q 934 3256 934 2222 
z
" transform="scale(0.015625)"/>
      <path id="ArialMT-4a" d="M 184 1300 
L 731 1375 
Q 753 850 928 656 
Q 1103 463 1413 463 
Q 1641 463 1806 567 
Q 1972 672 2034 851 
Q 2097 1031 2097 1425 
L 2097 4581 
L 2703 4581 
L 2703 1459 
Q 2703 884 2564 568 
Q 2425 253 2123 87 
Q 1822 -78 1416 -78 
Q 813 -78 492 269 
Q 172 616 184 1300 
z
" transform="scale(0.015625)"/>
      <path id="ArialMT-45" d="M 506 0 
L 506 4581 
L 3819 4581 
L 3819 4041 
L 1113 4041 
L 1113 2638 
L 3647 2638 
L 3647 2100 
L 1113 2100 
L 1113 541 
L 3925 541 
L 3925 0 
L 506 0 
z
" transform="scale(0.015625)"/>
      <path id="ArialMT-43" d="M 3763 1606 
L 4369 1453 
Q 4178 706 3683 314 
Q 3188 -78 2472 -78 
Q 1731 -78 1267 223 
Q 803 525 561 1097 
Q 319 1669 319 2325 
Q 319 3041 592 3573 
Q 866 4106 1370 4382 
Q 1875 4659 2481 4659 
Q 3169 4659 3637 4309 
Q 4106 3959 4291 3325 
L 3694 3184 
Q 3534 3684 3231 3912 
Q 2928 4141 2469 4141 
Q 1941 4141 1586 3887 
Q 1231 3634 1087 3207 
Q 944 2781 944 2328 
Q 944 1744 1114 1308 
Q 1284 872 1643 656 
Q 2003 441 2422 441 
Q 2931 441 3284 734 
Q 3638 1028 3763 1606 
z
" transform="scale(0.015625)"/>
      <path id="ArialMT-54" d="M 1659 0 
L 1659 4041 
L 150 4041 
L 150 4581 
L 3781 4581 
L 3781 4041 
L 2266 4041 
L 2266 0 
L 1659 0 
z
" transform="scale(0.015625)"/>
      <path id="ArialMT-5f" d="M -97 -1272 
L -97 -866 
L 3631 -866 
L 3631 -1272 
L -97 -1272 
z
" transform="scale(0.015625)"/>
      <path id="ArialMT-5a" d="M 128 0 
L 128 563 
L 2475 3497 
Q 2725 3809 2950 4041 
L 394 4041 
L 394 4581 
L 3675 4581 
L 3675 4041 
L 1103 863 
L 825 541 
L 3750 541 
L 3750 0 
L 128 0 
z
" transform="scale(0.015625)"/>
      <path id="ArialMT-47" d="M 2638 1797 
L 2638 2334 
L 4578 2338 
L 4578 638 
Q 4131 281 3656 101 
Q 3181 -78 2681 -78 
Q 2006 -78 1454 211 
Q 903 500 622 1047 
Q 341 1594 341 2269 
Q 341 2938 620 3517 
Q 900 4097 1425 4378 
Q 1950 4659 2634 4659 
Q 3131 4659 3532 4498 
Q 3934 4338 4162 4050 
Q 4391 3763 4509 3300 
L 3963 3150 
Q 3859 3500 3706 3700 
Q 3553 3900 3268 4020 
Q 2984 4141 2638 4141 
Q 2222 4141 1919 4014 
Q 1616 3888 1430 3681 
Q 1244 3475 1141 3228 
Q 966 2803 966 2306 
Q 966 1694 1177 1281 
Q 1388 869 1791 669 
Q 2194 469 2647 469 
Q 3041 469 3416 620 
Q 3791 772 3984 944 
L 3984 1797 
L 2638 1797 
z
" transform="scale(0.015625)"/>
      <path id="ArialMT-44" d="M 494 0 
L 494 4581 
L 2072 4581 
Q 2606 4581 2888 4516 
Q 3281 4425 3559 4188 
Q 3922 3881 4101 3404 
Q 4281 2928 4281 2316 
Q 4281 1794 4159 1391 
Q 4038 988 3847 723 
Q 3656 459 3429 307 
Q 3203 156 2883 78 
Q 2563 0 2147 0 
L 494 0 
z
M 1100 541 
L 2078 541 
Q 2531 541 2789 625 
Q 3047 709 3200 863 
Q 3416 1078 3536 1442 
Q 3656 1806 3656 2325 
Q 3656 3044 3420 3430 
Q 3184 3816 2847 3947 
Q 2603 4041 2063 4041 
L 1100 4041 
L 1100 541 
z
" transform="scale(0.015625)"/>
      <path id="ArialMT-28" d="M 1497 -1347 
Q 1031 -759 709 28 
Q 388 816 388 1659 
Q 388 2403 628 3084 
Q 909 3875 1497 4659 
L 1900 4659 
Q 1522 4009 1400 3731 
Q 1209 3300 1100 2831 
Q 966 2247 966 1656 
Q 966 153 1900 -1347 
L 1497 -1347 
z
" transform="scale(0.015625)"/>
      <path id="ArialMT-31" d="M 2384 0 
L 1822 0 
L 1822 3584 
Q 1619 3391 1289 3197 
Q 959 3003 697 2906 
L 697 3450 
Q 1169 3672 1522 3987 
Q 1875 4303 2022 4600 
L 2384 4600 
L 2384 0 
z
" transform="scale(0.015625)"/>
      <path id="ArialMT-35" d="M 266 1200 
L 856 1250 
Q 922 819 1161 601 
Q 1400 384 1738 384 
Q 2144 384 2425 690 
Q 2706 997 2706 1503 
Q 2706 1984 2436 2262 
Q 2166 2541 1728 2541 
Q 1456 2541 1237 2417 
Q 1019 2294 894 2097 
L 366 2166 
L 809 4519 
L 3088 4519 
L 3088 3981 
L 1259 3981 
L 1013 2750 
Q 1425 3038 1878 3038 
Q 2478 3038 2890 2622 
Q 3303 2206 3303 1553 
Q 3303 931 2941 478 
Q 2500 -78 1738 -78 
Q 1113 -78 717 272 
Q 322 622 266 1200 
z
" transform="scale(0.015625)"/>
      <path id="ArialMT-33" d="M 269 1209 
L 831 1284 
Q 928 806 1161 595 
Q 1394 384 1728 384 
Q 2125 384 2398 659 
Q 2672 934 2672 1341 
Q 2672 1728 2419 1979 
Q 2166 2231 1775 2231 
Q 1616 2231 1378 2169 
L 1441 2663 
Q 1497 2656 1531 2656 
Q 1891 2656 2178 2843 
Q 2466 3031 2466 3422 
Q 2466 3731 2256 3934 
Q 2047 4138 1716 4138 
Q 1388 4138 1169 3931 
Q 950 3725 888 3313 
L 325 3413 
Q 428 3978 793 4289 
Q 1159 4600 1703 4600 
Q 2078 4600 2393 4439 
Q 2709 4278 2876 4000 
Q 3044 3722 3044 3409 
Q 3044 3113 2884 2869 
Q 2725 2625 2413 2481 
Q 2819 2388 3044 2092 
Q 3269 1797 3269 1353 
Q 3269 753 2831 336 
Q 2394 -81 1725 -81 
Q 1122 -81 723 278 
Q 325 638 269 1209 
z
" transform="scale(0.015625)"/>
      <path id="ArialMT-29" d="M 791 -1347 
L 388 -1347 
Q 1322 153 1322 1656 
Q 1322 2244 1188 2822 
Q 1081 3291 891 3722 
Q 769 4003 388 4659 
L 791 4659 
Q 1378 3875 1659 3084 
Q 1900 2403 1900 1659 
Q 1900 816 1576 28 
Q 1253 -759 791 -1347 
z
" transform="scale(0.015625)"/>
     </defs>
     <use xlink:href="#ArialMT-41"/>
     <use xlink:href="#ArialMT-4c" x="66.699219"/>
     <use xlink:href="#ArialMT-55" x="122.314453"/>
     <use xlink:href="#ArialMT-20" x="194.53125"/>
     <use xlink:href="#ArialMT-50" x="222.314453"/>
     <use xlink:href="#ArialMT-52" x="289.013672"/>
     <use xlink:href="#ArialMT-4f" x="361.230469"/>
     <use xlink:href="#ArialMT-4a" x="439.013672"/>
     <use xlink:href="#ArialMT-45" x="489.013672"/>
     <use xlink:href="#ArialMT-43" x="555.712891"/>
     <use xlink:href="#ArialMT-54" x="627.929688"/>
     <use xlink:href="#ArialMT-5f" x="689.013672"/>
     <use xlink:href="#ArialMT-5a" x="744.628906"/>
     <use xlink:href="#ArialMT-54" x="805.712891"/>
     <use xlink:href="#ArialMT-45" x="866.796875"/>
     <use xlink:href="#ArialMT-5f" x="933.496094"/>
     <use xlink:href="#ArialMT-55" x="989.111328"/>
     <use xlink:href="#ArialMT-50" x="1061.328125"/>
     <use xlink:href="#ArialMT-47" x="1128.027344"/>
     <use xlink:href="#ArialMT-52" x="1205.810547"/>
     <use xlink:href="#ArialMT-41" x="1278.027344"/>
     <use xlink:href="#ArialMT-44" x="1344.726562"/>
     <use xlink:href="#ArialMT-45" x="1416.943359"/>
     <use xlink:href="#ArialMT-28" x="1483.642578"/>
     <use xlink:href="#ArialMT-31" x="1516.943359"/>
     <use xlink:href="#ArialMT-35" x="1572.558594"/>
     <use xlink:href="#ArialMT-33" x="1628.173828"/>
     <use xlink:href="#ArialMT-29" x="1683.789062"/>
    </g>
    <!-- Implementation Gap Analysis -->
    <g style="fill: #2c3e50" transform="translate(82.865625 32.57675) scale(0.14 -0.14)">
     <defs>
      <path id="ArialMT-49" d="M 597 0 
L 597 4581 
L 1203 4581 
L 1203 0 
L 597 0 
z
" transform="scale(0.015625)"/>
      <path id="ArialMT-6d" d="M 422 0 
L 422 3319 
L 925 3319 
L 925 2853 
Q 1081 3097 1340 3245 
Q 1600 3394 1931 3394 
Q 2300 3394 2536 3241 
Q 2772 3088 2869 2813 
Q 3263 3394 3894 3394 
Q 4388 3394 4653 3120 
Q 4919 2847 4919 2278 
L 4919 0 
L 4359 0 
L 4359 2091 
Q 4359 2428 4304 2576 
Q 4250 2725 4106 2815 
Q 3963 2906 3769 2906 
Q 3419 2906 3187 2673 
Q 2956 2441 2956 1928 
L 2956 0 
L 2394 0 
L 2394 2156 
Q 2394 2531 2256 2718 
Q 2119 2906 1806 2906 
Q 1569 2906 1367 2781 
Q 1166 2656 1075 2415 
Q 984 2175 984 1722 
L 984 0 
L 422 0 
z
" transform="scale(0.015625)"/>
      <path id="ArialMT-70" d="M 422 -1272 
L 422 3319 
L 934 3319 
L 934 2888 
Q 1116 3141 1344 3267 
Q 1572 3394 1897 3394 
Q 2322 3394 2647 3175 
Q 2972 2956 3137 2557 
Q 3303 2159 3303 1684 
Q 3303 1175 3120 767 
Q 2938 359 2589 142 
Q 2241 -75 1856 -75 
Q 1575 -75 1351 44 
Q 1128 163 984 344 
L 984 -1272 
L 422 -1272 
z
M 931 1641 
Q 931 1000 1190 694 
Q 1450 388 1819 388 
Q 2194 388 2461 705 
Q 2728 1022 2728 1688 
Q 2728 2322 2467 2637 
Q 2206 2953 1844 2953 
Q 1484 2953 1207 2617 
Q 931 2281 931 1641 
z
" transform="scale(0.015625)"/>
      <path id="ArialMT-6c" d="M 409 0 
L 409 4581 
L 972 4581 
L 972 0 
L 409 0 
z
" transform="scale(0.015625)"/>
      <path id="ArialMT-65" d="M 2694 1069 
L 3275 997 
Q 3138 488 2766 206 
Q 2394 -75 1816 -75 
Q 1088 -75 661 373 
Q 234 822 234 1631 
Q 234 2469 665 2931 
Q 1097 3394 1784 3394 
Q 2450 3394 2872 2941 
Q 3294 2488 3294 1666 
Q 3294 1616 3291 1516 
L 816 1516 
Q 847 969 1125 678 
Q 1403 388 1819 388 
Q 2128 388 2347 550 
Q 2566 713 2694 1069 
z
M 847 1978 
L 2700 1978 
Q 2663 2397 2488 2606 
Q 2219 2931 1791 2931 
Q 1403 2931 1139 2672 
Q 875 2413 847 1978 
z
" transform="scale(0.015625)"/>
      <path id="ArialMT-6e" d="M 422 0 
L 422 3319 
L 928 3319 
L 928 2847 
Q 1294 3394 1984 3394 
Q 2284 3394 2536 3286 
Q 2788 3178 2913 3003 
Q 3038 2828 3088 2588 
Q 3119 2431 3119 2041 
L 3119 0 
L 2556 0 
L 2556 2019 
Q 2556 2363 2490 2533 
Q 2425 2703 2258 2804 
Q 2091 2906 1866 2906 
Q 1506 2906 1245 2678 
Q 984 2450 984 1813 
L 984 0 
L 422 0 
z
" transform="scale(0.015625)"/>
      <path id="ArialMT-74" d="M 1650 503 
L 1731 6 
Q 1494 -44 1306 -44 
Q 1000 -44 831 53 
Q 663 150 594 308 
Q 525 466 525 972 
L 525 2881 
L 113 2881 
L 113 3319 
L 525 3319 
L 525 4141 
L 1084 4478 
L 1084 3319 
L 1650 3319 
L 1650 2881 
L 1084 2881 
L 1084 941 
Q 1084 700 1114 631 
Q 1144 563 1211 522 
Q 1278 481 1403 481 
Q 1497 481 1650 503 
z
" transform="scale(0.015625)"/>
      <path id="ArialMT-61" d="M 2588 409 
Q 2275 144 1986 34 
Q 1697 -75 1366 -75 
Q 819 -75 525 192 
Q 231 459 231 875 
Q 231 1119 342 1320 
Q 453 1522 633 1644 
Q 813 1766 1038 1828 
Q 1203 1872 1538 1913 
Q 2219 1994 2541 2106 
Q 2544 2222 2544 2253 
Q 2544 2597 2384 2738 
Q 2169 2928 1744 2928 
Q 1347 2928 1158 2789 
Q 969 2650 878 2297 
L 328 2372 
Q 403 2725 575 2942 
Q 747 3159 1072 3276 
Q 1397 3394 1825 3394 
Q 2250 3394 2515 3294 
Q 2781 3194 2906 3042 
Q 3031 2891 3081 2659 
Q 3109 2516 3109 2141 
L 3109 1391 
Q 3109 606 3145 398 
Q 3181 191 3288 0 
L 2700 0 
Q 2613 175 2588 409 
z
M 2541 1666 
Q 2234 1541 1622 1453 
Q 1275 1403 1131 1340 
Q 988 1278 909 1158 
Q 831 1038 831 891 
Q 831 666 1001 516 
Q 1172 366 1500 366 
Q 1825 366 2078 508 
Q 2331 650 2450 897 
Q 2541 1088 2541 1459 
L 2541 1666 
z
" transform="scale(0.015625)"/>
      <path id="ArialMT-69" d="M 425 3934 
L 425 4581 
L 988 4581 
L 988 3934 
L 425 3934 
z
M 425 0 
L 425 3319 
L 988 3319 
L 988 0 
L 425 0 
z
" transform="scale(0.015625)"/>
      <path id="ArialMT-6f" d="M 213 1659 
Q 213 2581 725 3025 
Q 1153 3394 1769 3394 
Q 2453 3394 2887 2945 
Q 3322 2497 3322 1706 
Q 3322 1066 3130 698 
Q 2938 331 2570 128 
Q 2203 -75 1769 -75 
Q 1072 -75 642 372 
Q 213 819 213 1659 
z
M 791 1659 
Q 791 1022 1069 705 
Q 1347 388 1769 388 
Q 2188 388 2466 706 
Q 2744 1025 2744 1678 
Q 2744 2294 2464 2611 
Q 2184 2928 1769 2928 
Q 1347 2928 1069 2612 
Q 791 2297 791 1659 
z
" transform="scale(0.015625)"/>
      <path id="ArialMT-79" d="M 397 -1278 
L 334 -750 
Q 519 -800 656 -800 
Q 844 -800 956 -737 
Q 1069 -675 1141 -563 
Q 1194 -478 1313 -144 
Q 1328 -97 1363 -6 
L 103 3319 
L 709 3319 
L 1400 1397 
Q 1534 1031 1641 628 
Q 1738 1016 1872 1384 
L 2581 3319 
L 3144 3319 
L 1881 -56 
Q 1678 -603 1566 -809 
Q 1416 -1088 1222 -1217 
Q 1028 -1347 759 -1347 
Q 597 -1347 397 -1278 
z
" transform="scale(0.015625)"/>
      <path id="ArialMT-73" d="M 197 991 
L 753 1078 
Q 800 744 1014 566 
Q 1228 388 1613 388 
Q 2000 388 2187 545 
Q 2375 703 2375 916 
Q 2375 1106 2209 1216 
Q 2094 1291 1634 1406 
Q 1016 1563 777 1677 
Q 538 1791 414 1992 
Q 291 2194 291 2438 
Q 291 2659 392 2848 
Q 494 3038 669 3163 
Q 800 3259 1026 3326 
Q 1253 3394 1513 3394 
Q 1903 3394 2198 3281 
Q 2494 3169 2634 2976 
Q 2775 2784 2828 2463 
L 2278 2388 
Q 2241 2644 2061 2787 
Q 1881 2931 1553 2931 
Q 1166 2931 1000 2803 
Q 834 2675 834 2503 
Q 834 2394 903 2306 
Q 972 2216 1119 2156 
Q 1203 2125 1616 2013 
Q 2213 1853 2448 1751 
Q 2684 1650 2818 1456 
Q 2953 1263 2953 975 
Q 2953 694 2789 445 
Q 2625 197 2315 61 
Q 2006 -75 1616 -75 
Q 969 -75 630 194 
Q 291 463 197 991 
z
" transform="scale(0.015625)"/>
     </defs>
     <use xlink:href="#ArialMT-49"/>
     <use xlink:href="#ArialMT-6d" x="27.783203"/>
     <use xlink:href="#ArialMT-70" x="111.083984"/>
     <use xlink:href="#ArialMT-6c" x="166.699219"/>
     <use xlink:href="#ArialMT-65" x="188.916016"/>
     <use xlink:href="#ArialMT-6d" x="244.53125"/>
     <use xlink:href="#ArialMT-65" x="327.832031"/>
     <use xlink:href="#ArialMT-6e" x="383.447266"/>
     <use xlink:href="#ArialMT-74" x="439.0625"/>
     <use xlink:href="#ArialMT-61" x="466.845703"/>
     <use xlink:href="#ArialMT-74" x="522.460938"/>
     <use xlink:href="#ArialMT-69" x="550.244141"/>
     <use xlink:href="#ArialMT-6f" x="572.460938"/>
     <use xlink:href="#ArialMT-6e" x="628.076172"/>
     <use xlink:href="#ArialMT-20" x="683.691406"/>
     <use xlink:href="#ArialMT-47" x="711.474609"/>
     <use xlink:href="#ArialMT-61" x="789.257812"/>
     <use xlink:href="#ArialMT-70" x="844.873047"/>
     <use xlink:href="#ArialMT-20" x="900.488281"/>
     <use xlink:href="#ArialMT-41" x="922.771484"/>
     <use xlink:href="#ArialMT-6e" x="989.470703"/>
     <use xlink:href="#ArialMT-61" x="1045.085938"/>
     <use xlink:href="#ArialMT-6c" x="1100.701172"/>
     <use xlink:href="#ArialMT-79" x="1122.917969"/>
     <use xlink:href="#ArialMT-73" x="1172.917969"/>
     <use xlink:href="#ArialMT-69" x="1222.917969"/>
     <use xlink:href="#ArialMT-73" x="1245.134766"/>
    </g>
   </g>
   <g id="legend_1">
    <g id="patch_4">
     <path d="M 346.14 240.965734 
L 491.821875 240.965734 
Q 493.621875 240.965734 493.621875 239.165734 
L 493.621875 198.627766 
Q 493.621875 196.827766 491.821875 196.827766 
L 346.14 196.827766 
Q 344.34 196.827766 344.34 198.627766 
L 344.34 239.165734 
Q 344.34 240.965734 346.14 240.965734 
z
" style="fill: #ffffff; opacity: 0.8; stroke: #cccccc; stroke-linejoin: miter"/>
    </g>
    <g id="text_4">
     <!-- Gap Categories -->
     <g style="fill: #262626" transform="translate(376.960313 209.163391) scale(0.12 -0.12)">
      <defs>
       <path id="ArialMT-67" d="M 319 -275 
L 866 -356 
Q 900 -609 1056 -725 
Q 1266 -881 1628 -881 
Q 2019 -881 2231 -725 
Q 2444 -569 2519 -288 
Q 2563 -116 2559 434 
Q 2191 0 1641 0 
Q 956 0 581 494 
Q 206 988 206 1678 
Q 206 2153 378 2554 
Q 550 2956 876 3175 
Q 1203 3394 1644 3394 
Q 2231 3394 2613 2919 
L 2613 3319 
L 3131 3319 
L 3131 450 
Q 3131 -325 2973 -648 
Q 2816 -972 2473 -1159 
Q 2131 -1347 1631 -1347 
Q 1038 -1347 672 -1080 
Q 306 -813 319 -275 
z
M 784 1719 
Q 784 1066 1043 766 
Q 1303 466 1694 466 
Q 2081 466 2343 764 
Q 2606 1063 2606 1700 
Q 2606 2309 2336 2618 
Q 2066 2928 1684 2928 
Q 1309 2928 1046 2623 
Q 784 2319 784 1719 
z
" transform="scale(0.015625)"/>
       <path id="ArialMT-72" d="M 416 0 
L 416 3319 
L 922 3319 
L 922 2816 
Q 1116 3169 1280 3281 
Q 1444 3394 1641 3394 
Q 1925 3394 2219 3213 
L 2025 2691 
Q 1819 2813 1613 2813 
Q 1428 2813 1281 2702 
Q 1134 2591 1072 2394 
Q 978 2094 978 1738 
L 978 0 
L 416 0 
z
" transform="scale(0.015625)"/>
      </defs>
      <use xlink:href="#ArialMT-47"/>
      <use xlink:href="#ArialMT-61" x="77.783203"/>
      <use xlink:href="#ArialMT-70" x="133.398438"/>
      <use xlink:href="#ArialMT-20" x="189.013672"/>
      <use xlink:href="#ArialMT-43" x="216.796875"/>
      <use xlink:href="#ArialMT-61" x="289.013672"/>
      <use xlink:href="#ArialMT-74" x="344.628906"/>
      <use xlink:href="#ArialMT-65" x="372.412109"/>
      <use xlink:href="#ArialMT-67" x="428.027344"/>
      <use xlink:href="#ArialMT-6f" x="483.642578"/>
      <use xlink:href="#ArialMT-72" x="539.257812"/>
      <use xlink:href="#ArialMT-69" x="572.558594"/>
      <use xlink:href="#ArialMT-65" x="594.775391"/>
      <use xlink:href="#ArialMT-73" x="650.390625"/>
     </g>
    </g>
    <g id="patch_5">
     <path d="M 347.94 222.631047 
L 365.94 222.631047 
L 365.94 216.331047 
L 347.94 216.331047 
z
" style="fill: #2c3e50; stroke: #ffffff; stroke-linejoin: miter"/>
    </g>
    <g id="text_5">
     <!-- Implementation Under Plan -->
     <g style="fill: #262626" transform="translate(373.14 222.631047) scale(0.09 -0.09)">
      <defs>
       <path id="ArialMT-64" d="M 2575 0 
L 2575 419 
Q 2259 -75 1647 -75 
Q 1250 -75 917 144 
Q 584 363 401 755 
Q 219 1147 219 1656 
Q 219 2153 384 2558 
Q 550 2963 881 3178 
Q 1213 3394 1622 3394 
Q 1922 3394 2156 3267 
Q 2391 3141 2538 2938 
L 2538 4581 
L 3097 4581 
L 3097 0 
L 2575 0 
z
M 797 1656 
Q 797 1019 1065 703 
Q 1334 388 1700 388 
Q 2069 388 2326 689 
Q 2584 991 2584 1609 
Q 2584 2291 2321 2609 
Q 2059 2928 1675 2928 
Q 1300 2928 1048 2622 
Q 797 2316 797 1656 
z
" transform="scale(0.015625)"/>
      </defs>
      <use xlink:href="#ArialMT-49"/>
      <use xlink:href="#ArialMT-6d" x="27.783203"/>
      <use xlink:href="#ArialMT-70" x="111.083984"/>
      <use xlink:href="#ArialMT-6c" x="166.699219"/>
      <use xlink:href="#ArialMT-65" x="188.916016"/>
      <use xlink:href="#ArialMT-6d" x="244.53125"/>
      <use xlink:href="#ArialMT-65" x="327.832031"/>
      <use xlink:href="#ArialMT-6e" x="383.447266"/>
      <use xlink:href="#ArialMT-74" x="439.0625"/>
      <use xlink:href="#ArialMT-61" x="466.845703"/>
      <use xlink:href="#ArialMT-74" x="522.460938"/>
      <use xlink:href="#ArialMT-69" x="550.244141"/>
      <use xlink:href="#ArialMT-6f" x="572.460938"/>
      <use xlink:href="#ArialMT-6e" x="628.076172"/>
      <use xlink:href="#ArialMT-20" x="683.691406"/>
      <use xlink:href="#ArialMT-55" x="711.474609"/>
      <use xlink:href="#ArialMT-6e" x="783.691406"/>
      <use xlink:href="#ArialMT-64" x="839.306641"/>
      <use xlink:href="#ArialMT-65" x="894.921875"/>
      <use xlink:href="#ArialMT-72" x="950.537109"/>
      <use xlink:href="#ArialMT-20" x="983.837891"/>
      <use xlink:href="#ArialMT-50" x="1011.621094"/>
      <use xlink:href="#ArialMT-6c" x="1078.320312"/>
      <use xlink:href="#ArialMT-61" x="1100.537109"/>
      <use xlink:href="#ArialMT-6e" x="1156.152344"/>
     </g>
    </g>
    <g id="patch_6">
     <path d="M 347.94 235.471516 
L 365.94 235.471516 
L 365.94 229.171516 
L 347.94 229.171516 
z
" style="fill: #27ae60; stroke: #ffffff; stroke-linejoin: miter"/>
    </g>
    <g id="text_6">
     <!-- Waiting WP Approval by TRC -->
     <g style="fill: #262626" transform="translate(373.14 235.471516) scale(0.09 -0.09)">
      <defs>
       <path id="ArialMT-57" d="M 1294 0 
L 78 4581 
L 700 4581 
L 1397 1578 
Q 1509 1106 1591 641 
Q 1766 1375 1797 1488 
L 2669 4581 
L 3400 4581 
L 4056 2263 
Q 4303 1400 4413 641 
Q 4500 1075 4641 1638 
L 5359 4581 
L 5969 4581 
L 4713 0 
L 4128 0 
L 3163 3491 
Q 3041 3928 3019 4028 
Q 2947 3713 2884 3491 
L 1913 0 
L 1294 0 
z
" transform="scale(0.015625)"/>
       <path id="ArialMT-76" d="M 1344 0 
L 81 3319 
L 675 3319 
L 1388 1331 
Q 1503 1009 1600 663 
Q 1675 925 1809 1294 
L 2547 3319 
L 3125 3319 
L 1869 0 
L 1344 0 
z
" transform="scale(0.015625)"/>
       <path id="ArialMT-62" d="M 941 0 
L 419 0 
L 419 4581 
L 981 4581 
L 981 2947 
Q 1338 3394 1891 3394 
Q 2197 3394 2470 3270 
Q 2744 3147 2920 2923 
Q 3097 2700 3197 2384 
Q 3297 2069 3297 1709 
Q 3297 856 2875 390 
Q 2453 -75 1863 -75 
Q 1275 -75 941 416 
L 941 0 
z
M 934 1684 
Q 934 1088 1097 822 
Q 1363 388 1816 388 
Q 2184 388 2453 708 
Q 2722 1028 2722 1663 
Q 2722 2313 2464 2622 
Q 2206 2931 1841 2931 
Q 1472 2931 1203 2611 
Q 934 2291 934 1684 
z
" transform="scale(0.015625)"/>
      </defs>
      <use xlink:href="#ArialMT-57"/>
      <use xlink:href="#ArialMT-61" x="90.634766"/>
      <use xlink:href="#ArialMT-69" x="146.25"/>
      <use xlink:href="#ArialMT-74" x="168.466797"/>
      <use xlink:href="#ArialMT-69" x="196.25"/>
      <use xlink:href="#ArialMT-6e" x="218.466797"/>
      <use xlink:href="#ArialMT-67" x="274.082031"/>
      <use xlink:href="#ArialMT-20" x="329.697266"/>
      <use xlink:href="#ArialMT-57" x="357.480469"/>
      <use xlink:href="#ArialMT-50" x="451.865234"/>
      <use xlink:href="#ArialMT-20" x="516.814453"/>
      <use xlink:href="#ArialMT-41" x="539.097656"/>
      <use xlink:href="#ArialMT-70" x="605.796875"/>
      <use xlink:href="#ArialMT-70" x="661.412109"/>
      <use xlink:href="#ArialMT-72" x="717.027344"/>
      <use xlink:href="#ArialMT-6f" x="750.328125"/>
      <use xlink:href="#ArialMT-76" x="805.943359"/>
      <use xlink:href="#ArialMT-61" x="855.943359"/>
      <use xlink:href="#ArialMT-6c" x="911.558594"/>
      <use xlink:href="#ArialMT-20" x="933.775391"/>
      <use xlink:href="#ArialMT-62" x="961.558594"/>
      <use xlink:href="#ArialMT-79" x="1017.173828"/>
      <use xlink:href="#ArialMT-20" x="1067.173828"/>
      <use xlink:href="#ArialMT-54" x="1093.207031"/>
      <use xlink:href="#ArialMT-52" x="1154.291016"/>
      <use xlink:href="#ArialMT-43" x="1226.507812"/>
     </g>
    </g>
   </g>
  </g>
 </g>
</svg>
